<svg width="2" height="3" viewBox="0 0 2 3" fill="none" xmlns="http://www.w3.org/2000/svg">
<path d="M1.96425 1.44044C2.00216 1.65704 2.00216 1.87857 1.96425 2.09517C2.01166 2.26655 2.01166 2.4476 1.96425 2.61898H1.57137H0.982123H0.523806C0.415893 2.64196 0.304328 2.64196 0.196415 2.61898V2.02968V1.17854C0.196415 1.17854 0.196415 0.720228 0.196415 0.523806C0.183927 0.349431 0.183927 0.174375 0.196415 0H0.589294H1.17854H1.63686C1.63686 0 1.63686 -1.59761e-05 1.63686 0.392829V0.916635L1.96425 1.44044ZM0 1.44044L1.50593 0.589244H0.982123C0.982123 0.589244 0.982123 0.589278 0.982123 0.982123C0.634779 0.958209 0.289317 1.05034 0 1.24403V1.44044ZM1.50593 1.44044V1.11305L0 2.02968H0.523806C0.548578 1.89991 0.548578 1.76663 0.523806 1.63686C0.696701 1.66086 0.872658 1.65006 1.04132 1.60509C1.20998 1.56011 1.36795 1.48186 1.50593 1.37495V1.44044Z" fill="#D9D9D9"/>
</svg>
