<svg width="2" height="2" viewBox="0 0 2 2" fill="none" xmlns="http://www.w3.org/2000/svg">
<path d="M1.99964 1.54329H0.691067C0.691067 1.54329 0.691067 1.88466 0.691067 1.94155C0.856306 2.00252 1.03788 2.00252 1.20312 1.94155C1.39755 1.86821 1.57268 1.75147 1.71517 1.6002C1.54307 1.7606 1.32334 1.86045 1.08933 1.88464C0.983897 1.9395 0.866796 1.96816 0.747952 1.96816C0.629108 1.96816 0.512028 1.9395 0.4066 1.88464C0.30636 1.79995 0.224399 1.69578 0.165713 1.57841C0.107026 1.46104 0.0728342 1.33295 0.0652254 1.20194C-0.0217418 0.963066 -0.0217418 0.701157 0.0652254 0.462284C0.123835 0.357252 0.205471 0.266868 0.304007 0.197892C0.402543 0.128917 0.515412 0.0831444 0.634161 0.0640253C0.733073 0.0217694 0.839521 0 0.947082 0C1.05464 0 1.16109 0.0217694 1.26 0.0640253C1.30138 0.270586 1.30138 0.483306 1.26 0.689867L1.99964 1.54329ZM1.65826 1.54329C1.65826 1.54329 1.65826 1.20193 1.65826 1.14503C1.60492 1.11973 1.54662 1.10662 1.48759 1.10662C1.42855 1.10662 1.37025 1.11973 1.31691 1.14503C1.26767 1.1081 1.20776 1.08813 1.14621 1.08813C1.08466 1.08813 1.02478 1.1081 0.975535 1.14503C0.945349 1.20707 0.929675 1.27515 0.929675 1.34414C0.929675 1.41314 0.945349 1.48125 0.975535 1.54329H1.65826Z" fill="#D9D9D9"/>
</svg>
