<svg width="11" height="9" viewBox="0 0 11 9" fill="none" xmlns="http://www.w3.org/2000/svg">
<path d="M1.70147 9.0001L0.242358 5.73168C-0.0707366 4.99595 -0.0808532 4.1664 0.214216 3.42327C0.509285 2.68013 1.08568 2.08344 1.81818 1.76288L5.08663 0.245414C5.8307 -0.070069 6.66868 -0.0818201 7.42131 0.212686C8.17394 0.507191 8.7814 1.08457 9.11375 1.82126L10.5729 5.08966H10.1059L8.64683 1.82126C8.34442 1.31683 7.87803 0.931483 7.32562 0.729641C6.77321 0.527798 6.16827 0.521681 5.61189 0.712319L2.28511 2.17143C1.68193 2.45173 1.21101 2.95511 0.971515 3.57562C0.73202 4.19613 0.742624 4.88536 1.00108 5.49821L2.4602 8.76664L1.70147 9.0001Z" fill="#D9D9D9"/>
</svg>
