<svg width="3" height="3" viewBox="0 0 3 3" fill="none" xmlns="http://www.w3.org/2000/svg">
<path d="M0.488411 2.34003L0.123679 1.5376C0.0521241 1.40576 0.0104915 1.25981 0.0017401 1.11006C-0.00701129 0.960313 0.0173225 0.81045 0.0730335 0.671172C0.128744 0.531895 0.214449 0.406592 0.324063 0.304187C0.433677 0.201782 0.564504 0.124797 0.707244 0.0786747H1.072C1.35463 -0.0270949 1.66612 -0.0261942 1.94812 0.0812348C2.23012 0.188664 2.46328 0.395262 2.60389 0.662268V1.46469C2.72747 1.74549 2.73551 2.06364 2.62629 2.35032C2.51708 2.63701 2.29938 2.86918 2.0203 2.99658H1.58263C1.35449 3.01536 1.12621 2.96209 0.929918 2.84431C0.733627 2.72654 0.579204 2.55016 0.488411 2.34003Z" fill="#D9D9D9"/>
</svg>
