<svg width="2" height="3" viewBox="0 0 2 3" fill="none" xmlns="http://www.w3.org/2000/svg">
<path d="M2.00011 1.18643C2.00011 1.9571 2.00009 2.40664 1.10098 2.53509C1.61476 2.53509 1.87166 2.08557 1.74322 1.5718C1.70618 1.72128 1.6252 1.85624 1.51073 1.95927C1.39625 2.06229 1.25353 2.12863 1.10098 2.14977C1.00023 2.19595 0.890708 2.21989 0.779876 2.21989C0.669045 2.21989 0.559522 2.19595 0.45877 2.14977C0.245064 1.97194 0.107241 1.71928 0.0734282 1.44332C-0.0244761 1.15162 -0.0244761 0.835925 0.0734282 0.544217C0.139587 0.425657 0.231737 0.323631 0.342964 0.245772C0.454191 0.167913 0.581621 0.116245 0.715665 0.0946634C0.823058 0.03266 0.944882 0 1.06889 0C1.1929 0 1.31472 0.03266 1.42211 0.0946634L2.00011 1.18643ZM1.55054 0.479981C1.59461 0.355318 1.59461 0.219327 1.55054 0.0946634C1.40558 0.0405025 1.24594 0.0405025 1.10098 0.0946634C0.953949 0.0535599 0.798462 0.0535599 0.651429 0.0946634C0.603731 0.206316 0.579157 0.326474 0.579157 0.447887C0.579157 0.569301 0.603731 0.689459 0.651429 0.801111C0.616828 0.970623 0.616828 1.14539 0.651429 1.3149C0.816618 1.37938 1.00003 1.37938 1.16522 1.3149C1.16522 1.3149 1.1652 1.31488 1.55054 0.99377C1.61502 0.828581 1.61502 0.64517 1.55054 0.479981Z" fill="#D9D9D9"/>
</svg>
