<svg width="65" height="65" viewBox="0 0 65 65" fill="none" xmlns="http://www.w3.org/2000/svg">
<path d="M25.169 0.826435C18.9081 2.27604 13.2175 5.54932 8.81648 10.2325C4.41551 14.9157 1.50177 20.7985 0.443605 27.1374C-0.614564 33.4762 0.230336 39.9865 2.8715 45.8453C5.51267 51.704 9.83152 56.6482 15.2821 60.0529C20.7327 63.4576 27.0704 65.1698 33.494 64.9732C39.9175 64.7766 46.1386 62.68 51.3708 58.9484C56.603 55.2169 60.6115 50.0178 62.8894 44.0085C65.1674 37.9992 65.6126 31.4494 64.1688 25.1871C62.2176 16.7908 57.0161 9.51097 49.7051 4.94423C42.3941 0.377498 33.5703 -1.10336 25.169 0.826435ZM61.1731 24.5089L48.5123 27.3915C47.4746 22.9584 45.8992 18.6686 43.8211 14.6176C45.9928 12.6922 47.6943 10.2946 48.795 7.609C54.8558 11.5185 59.2783 17.509 61.2297 24.4524L61.1731 24.5089ZM27.2603 3.6525C30.0738 4.31934 32.7088 5.58974 34.9827 7.37571C37.2567 9.16168 39.1153 11.4206 40.4298 13.9959C37.4905 16.1162 34.1708 17.6513 30.6516 18.5176L27.2603 3.6525ZM32.9125 2.69165C37.7228 2.74611 42.4508 3.94747 46.7037 6.19597C45.7738 8.47828 44.3219 10.5109 42.4646 12.1307C40.1298 8.13486 36.749 4.85177 32.6864 2.63512L32.9125 2.69165ZM24.8299 4.21771L28.2777 19.1394C24.7294 19.8094 21.087 19.8094 17.5386 19.1394C17.5752 16.2825 18.2249 13.4667 19.4438 10.8826C20.6627 8.29853 22.4224 6.00637 24.6038 4.1612L24.8299 4.21771ZM14.8821 18.6872C12.5472 17.9454 10.4181 16.6679 8.6648 14.9568C11.476 11.0461 15.2018 7.883 19.5169 5.74379C16.7397 9.5092 15.0574 13.9691 14.6561 18.6307L14.8821 18.6872ZM28.8429 21.7393L31.1038 31.5175L18.6691 34.3436C17.7988 30.3134 17.363 26.2015 17.3691 22.0785C21.1123 22.6123 24.9204 22.4783 28.6168 21.6828L28.8429 21.7393ZM31.7255 34.1175L33.9864 43.8957C30.2323 44.8037 26.6843 46.4147 23.5299 48.6435C21.6801 44.9356 20.2579 41.0294 19.2908 37.0001L31.7255 34.1175ZM34.6081 46.4957L37.9994 61.3608C35.2005 60.6761 32.5814 59.3983 30.3191 57.6139C28.0568 55.8294 26.2041 53.5798 24.8864 51.0174C27.7249 48.8901 30.9499 47.3352 34.382 46.4392L34.6081 46.4957ZM32.5733 62.3217C27.7559 62.322 23.015 61.1173 18.7821 58.8174C19.5977 56.5137 20.9546 54.4396 22.7386 52.7696C25.0359 56.7362 28.3538 60.015 32.3472 62.2652L32.5733 62.3217ZM40.6559 60.7956L36.982 46.0435C40.5277 45.3458 44.1754 45.3458 47.721 46.0435C47.6203 48.8706 46.9179 51.6437 45.6606 54.1778C44.4033 56.7119 42.62 58.9487 40.4298 60.7391L40.6559 60.7956ZM50.6036 46.3826C52.942 47.0881 55.075 48.3486 56.821 50.0565C54.0184 53.9609 50.2892 57.1074 45.9689 59.213C48.5852 55.3993 50.1097 50.9432 50.3776 46.3261L50.6036 46.3826ZM36.4733 43.2175L34.269 33.4392L46.6471 30.6132C47.4849 34.6459 47.8641 38.7604 47.7776 42.8783C44.0188 42.3263 40.1922 42.4411 36.4733 43.2175ZM33.6472 30.8393L31.3864 21.0611C35.1404 20.1531 38.6885 18.5421 41.8428 16.3133C43.6927 20.0212 45.1148 23.9274 46.0819 27.9567L33.6472 30.8393ZM6.91264 17.2176C9.08651 19.1694 11.6768 20.5998 14.4865 21.4002C14.3766 25.8859 14.8324 30.3675 15.843 34.7392L3.18223 37.6783C1.92692 30.6314 3.25117 23.3681 6.91264 17.2176ZM3.80396 40.3914L16.4647 37.5088C17.5025 41.9419 19.0779 46.2316 21.156 50.2826C18.9772 52.2242 17.2752 54.6418 16.1821 57.3478C10.0943 53.4281 5.68216 47.3841 3.80396 40.3914ZM58.121 47.6261C55.9381 45.6871 53.3509 44.2583 50.5471 43.4435C50.6432 38.9024 50.1877 34.3663 49.1906 29.9349L61.8514 26.9958C63.1632 34.1156 61.8371 41.4695 58.121 47.6826V47.6261Z" fill="#D9D9D9"/>
</svg>
