<svg width="2" height="5" viewBox="0 0 2 5" fill="none" xmlns="http://www.w3.org/2000/svg">
<path d="M0.623401 4.71951C0.429591 4.76676 0.227241 4.76676 0.0334302 4.71951V4.26067C0.058 3.82402 0.058 3.38635 0.0334302 2.9497C-0.0111434 2.60153 -0.0111434 2.24906 0.0334302 1.90089C0.16067 1.8559 0.299471 1.8559 0.426711 1.90089C0.426711 1.90089 0.426711 1.90092 0.426711 2.29422C0.451512 2.42414 0.451512 2.55757 0.426711 2.6875C0.365 3.232 0.365 3.78173 0.426711 4.32623C0.426711 4.32623 0.426723 4.32623 0.951118 4.32623L1.6066 3.40855C1.6066 3.01525 1.73773 2.81858 1.99993 2.81858C1.89589 3.09345 1.76408 3.35703 1.6066 3.60519C1.40995 4.26068 0.951148 4.71951 0.623401 4.71951ZM0.623401 0V0.458844C0.550796 0.489491 0.472762 0.505253 0.393954 0.505253C0.315146 0.505253 0.237162 0.489491 0.164557 0.458844C0.164557 0.458844 0.754492 0.458846 0.820041 0H0.623401Z" fill="#D9D9D9"/>
</svg>
