<svg width="2" height="4" viewBox="0 0 2 4" fill="none" xmlns="http://www.w3.org/2000/svg">
<path d="M1.67219 2.68744C1.67219 2.68744 1.67219 2.68747 1.67219 3.0458H1.25414C1.09636 3.07641 0.934168 3.07641 0.776383 3.0458H0V0H0.895828C1.55276 0 1.85135 -3.64866e-06 1.79163 0.836094C1.83715 0.971726 1.83715 1.11851 1.79163 1.25414C1.67571 1.29513 1.54925 1.29513 1.43332 1.25414L1.67219 2.68744ZM1.31388 1.31388H0.836094V2.26939H1.67219C1.67219 2.26939 1.31388 1.3736 1.31388 1.31388ZM1.31388 2.68744H0.597203V3.76242H1.01525H1.61248C1.68306 3.73889 1.74832 3.70173 1.80453 3.65298C1.86074 3.60423 1.90678 3.54488 1.94006 3.47833C1.97333 3.41179 1.99317 3.33931 1.99845 3.2651C2.00372 3.19088 1.99432 3.11638 1.97079 3.0458C1.94726 2.97521 1.91007 2.90995 1.86132 2.85375C1.81257 2.79754 1.75322 2.75147 1.68668 2.71819C1.62013 2.68492 1.54768 2.6651 1.47346 2.65983C1.39925 2.65455 1.32473 2.66391 1.25414 2.68744H1.31388Z" fill="#D9D9D9"/>
</svg>
