<svg width="3" height="4" viewBox="0 0 3 4" fill="none" xmlns="http://www.w3.org/2000/svg">
<path d="M2.43991 1.97983C2.43991 1.97983 2.43991 1.97983 2.43991 2.46781C2.47252 2.60532 2.47252 2.74854 2.43991 2.88606C2.47014 3.02384 2.47014 3.16652 2.43991 3.30431C2.46943 3.41862 2.46943 3.53857 2.43991 3.65288H2.02163H1.39423H0.697129L0 0.167322H0.906254C1.10972 0.0574959 1.33731 0 1.56852 0C1.79973 0 2.0273 0.0574959 2.23076 0.167322C2.40029 0.434003 2.50719 0.735639 2.54341 1.04956C2.57963 1.36348 2.54425 1.68155 2.43991 1.97983ZM1.95193 1.97983V1.3524C1.8152 1.31364 1.67039 1.31364 1.53366 1.3524H0.627402L1.11538 4.00141H1.46396C1.81251 3.51343 2.09136 3.02547 1.95193 2.11923V1.97983Z" fill="#D9D9D9"/>
</svg>
