<svg width="56" height="20" viewBox="0 0 56 20" fill="none" xmlns="http://www.w3.org/2000/svg">
<path d="M54.6457 4.06139L55.9438 10.8905L10.7927 19.8078C9.62047 20.0534 8.41094 20.0618 7.23539 19.8325C6.05984 19.6033 4.94206 19.1411 3.94795 18.4731C2.95384 17.8051 2.10352 16.9448 1.44708 15.943C0.790645 14.9413 0.341386 13.8182 0.125781 12.6401C-0.0419271 11.6879 -0.0419271 10.7139 0.125781 9.76172L48.7196 0.110685C49.3688 -0.0287134 50.0394 -0.0365292 50.6917 0.0877348C51.344 0.211999 51.9648 0.465795 52.5173 0.834127C53.0698 1.20246 53.5428 1.67786 53.9083 2.23218C54.2739 2.7865 54.5247 3.40849 54.6457 4.06139Z" fill="#D9D9D9"/>
</svg>
