<svg width="2" height="2" viewBox="0 0 2 2" fill="none" xmlns="http://www.w3.org/2000/svg">
<path d="M0.665053 1.87371C0.431407 1.81771 0.21682 1.70067 0.0432392 1.53455C-0.0144131 1.29299 -0.0144131 1.04122 0.0432392 0.799657C0.07523 0.524855 0.194053 0.267437 0.382416 0.0648056C0.619752 -0.0216019 0.879932 -0.0216019 1.11727 0.0648056C1.11727 0.0648056 1.62603 0.0647918 1.73908 0.403961C1.89963 0.604481 1.98711 0.853694 1.98711 1.11056C1.98711 1.36743 1.89963 1.61665 1.73908 1.81717C1.58321 1.92598 1.39997 1.98896 1.21014 1.99895C1.02031 2.00894 0.831486 1.96555 0.665053 1.87371ZM0.665053 0.121346C0.519654 0.0645879 0.358216 0.0645879 0.212817 0.121346C0.173058 0.200248 0.152352 0.28736 0.152352 0.375713C0.152352 0.464065 0.173058 0.551178 0.212817 0.630079C0.17217 0.718761 0.151144 0.815184 0.151144 0.912738C0.151144 1.01029 0.17217 1.10667 0.212817 1.19535C0.27446 1.22534 0.342113 1.24094 0.410665 1.24094C0.479217 1.24094 0.546892 1.22534 0.608535 1.19535C0.687436 1.23511 0.774548 1.25586 0.862901 1.25586C0.951254 1.25586 1.03837 1.23511 1.11727 1.19535C1.15458 1.10579 1.17381 1.00976 1.17381 0.912738C1.17381 0.815716 1.15458 0.719638 1.11727 0.630079C1.17784 0.465904 1.17784 0.285521 1.11727 0.121346C1.04253 0.107527 0.965909 0.107527 0.891171 0.121346H0.665053Z" fill="#D9D9D9"/>
</svg>
