<svg width="2" height="2" viewBox="0 0 2 2" fill="none" xmlns="http://www.w3.org/2000/svg">
<path d="M1.30259 1.49642H1.01482C0.976704 1.612 0.908725 1.71542 0.817763 1.79628C0.726801 1.87713 0.616086 1.93251 0.496834 1.95681C0.348797 2.0146 0.184441 2.0146 0.036403 1.95681C-0.0121343 1.82691 -0.0121343 1.68384 0.036403 1.55394C0.036403 1.20861 0.209066 0.978426 0.554389 0.863318H1.07238C1.05828 0.751432 1.00361 0.648605 0.918745 0.574345C0.833877 0.500085 0.724712 0.459558 0.611945 0.460442C0.376838 0.518853 0.171758 0.662405 0.036403 0.863318V0.517965C0.223975 0.377108 0.44004 0.278925 0.6695 0.230221C1.07238 0.230221 1.36014 0.230212 1.4177 0.805752L1.30259 1.49642ZM0.842155 0.402876H0.381724H0.0939583C0.147919 0.428472 0.2069 0.441736 0.266624 0.441736C0.326348 0.441736 0.385318 0.428472 0.439279 0.402876C0.469814 0.340115 0.485681 0.271211 0.485681 0.201416C0.485681 0.131621 0.469814 0.0627613 0.439279 0L0.842155 0.402876Z" fill="#D9D9D9"/>
</svg>
