<svg width="3" height="2" viewBox="0 0 3 2" fill="none" xmlns="http://www.w3.org/2000/svg">
<path d="M2.11414 1.17489H0.771455C0.71284 1.32504 0.71284 1.49176 0.771455 1.64192C0.842452 1.68291 0.92297 1.7045 1.00495 1.7045C1.08693 1.7045 1.16747 1.68291 1.23847 1.64192C1.32109 1.67896 1.41063 1.69808 1.50118 1.69808C1.59173 1.69808 1.68124 1.67896 1.76387 1.64192C1.57966 1.79471 1.35795 1.89546 1.12171 1.93378C1.02022 1.97714 0.910993 1.99952 0.800628 1.99952C0.690263 1.99952 0.58104 1.97714 0.479548 1.93378C0.27725 1.74567 0.135079 1.50197 0.0709051 1.23328C-0.023635 0.98914 -0.023635 0.718476 0.0709051 0.474338C0.208198 0.270549 0.416225 0.124941 0.654697 0.0656947C0.756188 0.022337 0.865412 0 0.975777 0C1.08614 0 1.19537 0.022337 1.29686 0.0656947C1.49112 0.227342 1.61637 0.457013 1.64711 0.707854L2.11414 1.17489ZM1.76387 1.17489C1.80393 1.06157 1.80393 0.937954 1.76387 0.824635C1.76387 0.824635 1.76386 0.824635 1.41359 0.824635C1.29843 0.797323 1.1785 0.797323 1.06334 0.824635C1.0302 0.978545 1.0302 1.13771 1.06334 1.29162L1.76387 1.17489Z" fill="#D9D9D9"/>
</svg>
