<svg width="2" height="5" viewBox="0 0 2 5" fill="none" xmlns="http://www.w3.org/2000/svg">
<path d="M0.421575 4.99871H0C0.0174373 4.75812 0.0174373 4.51657 0 4.27599C0 3.91464 0 3.61351 0 3.43284V2.95102C0 1.50562 0 0.481802 0 0V0.481813C0.0580259 0.961868 0.0580259 1.44715 0 1.92721C0.0238064 2.26807 0.0238064 2.61016 0 2.95102C0 2.95102 0 3.31238 0 3.61351C0 3.91463 -4.59931e-06 3.61351 0.301122 3.01126C0.378071 2.69451 0.499751 2.39032 0.662481 2.10787C0.662481 2.10787 0.662467 2.10787 1.02382 2.10787C1.08028 2.08109 1.14199 2.06721 1.20449 2.06721C1.26698 2.06721 1.32871 2.08109 1.38518 2.10787C1.43181 2.48788 1.43181 2.87217 1.38518 3.25217C1.35947 3.55275 1.35947 3.85498 1.38518 4.15556C1.38518 4.15556 1.38516 4.15551 1.74651 3.73394C1.78872 3.39396 1.78872 3.05009 1.74651 2.71012C1.74651 2.28854 1.74651 2.10787 1.74651 2.10787C1.78921 2.3671 1.78921 2.63156 1.74651 2.89079C1.74651 3.91462 1.20449 4.51691 0.903365 4.57713H1.6863C1.66887 4.29635 1.66887 4.01472 1.6863 3.73394C1.72932 3.45453 1.72932 3.17019 1.6863 2.89079C1.6863 2.89079 1.6863 2.89079 1.26472 3.55327C1.24039 3.83379 1.24039 4.11589 1.26472 4.39642C1.26472 4.39642 0.421575 4.87826 0.421575 4.99871ZM0.421575 1.14429V0.782912C0.421575 0.782912 0.421575 1.14425 0.421575 1.80673C0.397655 2.20788 0.397655 2.61012 0.421575 3.01126C0.504424 2.3833 0.442609 1.74472 0.240884 1.14429H0.421575Z" fill="#D9D9D9"/>
</svg>
