<svg width="903" height="324" viewBox="0 0 903 324" fill="none" xmlns="http://www.w3.org/2000/svg">
<path d="M1.51337 323.968C3.17989 322.742 4.83741 321.518 6.50392 320.274C53.6889 285.043 98.2705 245.2 141.393 206.663L150.563 198.465C175.642 176.08 202.369 152.316 229.25 129.499C263.484 100.474 300.918 75.4492 340.825 54.9107C367.544 41.0916 395.465 29.7305 424.241 20.9677C461.13 9.83356 495.793 3.49187 530.214 1.57312C561.932 -0.228518 590.839 1.57307 618.584 6.92394C656.419 14.2476 690.857 27.3095 720.881 45.7583C759.914 69.7381 793.217 102.357 822.674 145.488C843.384 175.798 861.011 208.103 875.291 241.921C888.119 272.333 896.848 298.961 902.099 323.977H903C897.739 298.853 888.983 272.107 876.102 241.57C861.81 207.703 844.168 175.35 823.44 144.993C793.875 101.753 760.482 69.0535 721.341 45.0016C691.217 26.4988 656.698 13.3919 618.737 6.05017C590.92 0.645252 561.986 -1.08432 530.151 0.645252C495.649 2.564 460.923 8.92374 423.962 20.0759C395.131 28.8536 367.159 40.239 340.393 54.0909C300.436 74.6541 262.959 99.7153 228.691 128.787C201.802 151.614 175.065 175.386 149.987 197.781L140.816 205.978C97.712 244.497 53.1394 284.35 5.99045 319.527C3.99063 321.022 1.99982 322.499 0 323.959L1.51337 323.968Z" fill="#83CD20"/>
</svg>
