<svg width="3" height="3" viewBox="0 0 3 3" fill="none" xmlns="http://www.w3.org/2000/svg">
<path d="M2.33891 1.4993C2.37202 1.63728 2.37202 1.78113 2.33891 1.91911H2.03906H1.67921C1.5042 1.97851 1.31448 1.97851 1.13946 1.91911H0.71966V2.99861H0L0.359841 0H1.19945H1.61925C1.61925 0 1.61926 0 1.97909 0C1.97909 0 2.39888 1.37936 2.33891 1.4993ZM1.91911 1.4993C1.96122 1.42637 1.98339 1.34363 1.98339 1.25941C1.98339 1.17519 1.96122 1.09245 1.91911 1.01952C1.74601 0.949493 1.55246 0.949493 1.37936 1.01952H0.959554V2.27893H1.3194H1.91911C2.01202 2.1703 2.06308 2.03204 2.06308 1.88909C2.06308 1.74615 2.01202 1.60793 1.91911 1.4993Z" fill="#D9D9D9"/>
</svg>
