<svg width="3" height="3" viewBox="0 0 3 3" fill="none" xmlns="http://www.w3.org/2000/svg">
<path d="M2.4523 2.89628C2.1988 2.94315 1.93887 2.94315 1.68537 2.89628C1.3365 3.03504 0.947751 3.03504 0.598881 2.89628C0.425445 2.7576 0.284195 2.58292 0.184884 2.3843C0.0855735 2.18568 0.03057 1.96785 0.0236838 1.74589C-0.00789461 1.51261 -0.00789461 1.27614 0.0236838 1.04287V0.467695L0.407157 0.0203227C0.597931 -0.00677424 0.791579 -0.00677424 0.982354 0.0203227H1.74927V0.403771H0.918429H0.534981C0.526819 0.552784 0.526819 0.702131 0.534981 0.851144C0.507535 1.02047 0.507535 1.19312 0.534981 1.36244C0.541724 1.5348 0.585104 1.70376 0.662244 1.85804C0.739385 2.01232 0.848512 2.14838 0.982354 2.25719C1.09894 2.3245 1.23118 2.35992 1.3658 2.35992C1.50043 2.35992 1.63269 2.3245 1.74927 2.25719H2.13272L2.4523 2.89628Z" fill="#D9D9D9"/>
</svg>
