<svg width="60" height="441" viewBox="0 0 60 441" fill="none" xmlns="http://www.w3.org/2000/svg">
<path d="M57.4667 200.521L57.0346 195.813C56.1344 186.119 54.7932 176.298 53.497 166.801C52.8308 162.003 52.1557 157.034 51.5436 152.155C48.564 128.463 41.9838 105.752 35.9347 86.6591C26.5509 56.7707 14.5409 27.7712 0.0450111 0V1.94434C14.1529 29.2078 25.8719 57.6424 35.0705 86.9292C41.1017 105.986 47.6729 128.652 50.6344 152.263C51.2555 157.16 51.9307 162.165 52.5968 166.927C53.893 176.415 55.2433 186.218 56.1254 195.903L56.5665 200.611C57.8628 214.519 59.213 228.904 58.7539 242.982C58.3128 256.359 56.7196 269.924 55.1533 283.049C54.5592 288.135 53.938 293.391 53.3529 298.558C50.8898 321.114 45.6688 343.283 37.807 364.568C26.834 394.642 14.5197 419.091 0 439.462V441.001C14.9158 420.351 27.5001 395.534 38.7072 364.883C46.5967 343.53 51.8329 321.288 54.2981 298.658C54.8382 293.491 55.4593 288.234 56.0984 283.157C57.6467 270.014 59.24 256.422 59.6991 243.009C60.1222 228.85 58.7719 214.447 57.4667 200.521Z" fill="#83CD20"/>
</svg>
