<svg width="3" height="4" viewBox="0 0 3 4" fill="none" xmlns="http://www.w3.org/2000/svg">
<path d="M2.55961 2.70179C2.59288 2.84205 2.59288 2.98812 2.55961 3.12838C2.60841 3.26639 2.60841 3.417 2.55961 3.55501H2.20412H1.63533H0.711019L0 0H1.06652C1.84862 0 2.27521 -2.60631e-05 2.41741 0.639876C2.45666 0.803455 2.45666 0.973997 2.41741 1.13758C2.41741 1.13758 2.41743 1.13756 1.99083 1.56416H2.55961C2.55961 1.56416 2.48851 2.55959 2.55961 2.70179ZM1.63533 1.20869H0.568815V2.34627H1.06652L1.63533 1.20869ZM1.99083 2.77291H1.35092H0.853223V3.9816H1.42201C1.6107 4.00788 1.80214 4.00788 1.99083 3.9816C2.15111 3.9816 2.30483 3.91793 2.41817 3.8046C2.53151 3.69126 2.59517 3.53754 2.59517 3.37725C2.59517 3.21697 2.53151 3.06325 2.41817 2.94991C2.30483 2.83657 2.15111 2.77291 1.99083 2.77291Z" fill="#D9D9D9"/>
</svg>
