<svg width="692" height="1026" viewBox="0 0 692 1026" fill="none" xmlns="http://www.w3.org/2000/svg">
<path d="M689.017 401.885C685.417 368.053 680.512 338.532 674.095 311.649C666.73 280.151 656.707 249.335 644.133 219.532C635.862 200.083 626.421 180.183 616.071 160.392C607.971 144.93 599.465 129.386 591.212 114.356C582.788 99.0019 574.112 83.1256 565.841 67.3483C557.084 50.5629 548.371 31.9236 539.218 10.3772C537.769 6.97513 536.41 3.51006 535.096 0.0179905H534.124C535.483 3.61806 536.878 7.21813 538.381 10.7372C547.543 32.3376 556.265 50.959 565.04 67.7713C573.275 83.5576 581.987 99.4339 590.411 114.788C598.664 129.818 607.197 145.389 615.27 160.815C625.602 180.615 635.07 200.461 643.296 219.892C655.852 249.648 665.86 280.416 673.213 311.865C679.621 338.712 684.499 368.188 688.117 401.984C690.358 422.882 690.817 444.14 690.979 460.332C691.141 477.315 690.628 494.604 690.079 511.318C689.935 516.367 689.782 521.416 689.647 526.465C689.395 536.104 688.855 545.896 688.333 555.365L688.261 556.751C687.928 562.736 687.586 568.937 686.83 574.976C685.858 582.869 684.751 590.879 683.689 598.637C682.879 604.587 682.06 610.545 681.286 616.503C680.755 620.589 680.305 624.756 679.864 628.788C679.072 636.078 678.253 643.62 676.948 650.937C673.258 671.638 669.595 689.827 665.743 706.504C664.867 710.285 664 714.062 663.142 717.836C658.219 739.436 653.115 761.666 646.653 783.141C634.539 823.39 621.534 855.394 605.73 883.862C586.514 918.458 565.166 945.819 540.478 967.482C517.591 987.571 494.667 1001.84 470.421 1011.09C450.072 1018.86 431.72 1023.29 414.332 1024.66C399.986 1025.79 385.288 1024.71 370.231 1023.41C351.619 1021.8 333.744 1015.48 317.13 1004.62C291.93 988.156 271.796 964.953 255.596 933.696C242.627 908.684 231.961 880.307 222.016 844.405C216.076 822.94 210.64 800.952 205.375 779.676C203.404 771.711 201.442 763.745 199.435 755.78C195.619 740.564 191.821 725.339 188.041 710.104C184.363 695.302 180.669 680.503 176.961 665.707C174.018 654.006 171.084 642.063 168.24 630.525C161.184 601.868 153.885 572.231 145.902 543.295C136.623 509.653 126.254 475.704 116.201 442.871C113.747 434.807 111.29 426.746 108.83 418.688C103.637 401.588 98.1289 384.244 92.8098 367.486C89.7377 357.814 86.6776 348.13 83.6296 338.433C80.9775 329.955 78.2955 321.483 75.5835 313.017C68.8603 291.876 61.9032 270.014 55.7201 248.324C48.5919 223.348 42.1118 197.725 35.8477 172.947C34.2576 166.653 32.6586 160.353 31.0506 154.047C27.1355 138.684 23.9315 124.877 21.2584 111.845C18.8644 100.145 16.6953 88.2287 14.5983 76.6904C13.5243 70.8223 12.4442 64.9542 11.3582 59.0861C10.4282 54.154 9.47418 49.2279 8.49616 44.3078C6.60613 34.6327 4.64408 24.6335 3.03305 14.7513C2.24104 9.86419 1.54803 4.91409 0.900017 0H0C0.657013 4.96809 1.35001 9.96319 2.15103 14.8953C3.77106 24.7955 5.75111 34.8037 7.62315 44.4788C8.59516 49.4049 9.54918 54.331 10.4852 59.2571C11.5832 65.1132 12.6602 70.9783 13.7163 76.8524C15.8223 88.3997 17.9913 100.334 20.3944 112.025C23.0944 125.075 26.2715 138.891 30.1956 154.326C31.7976 160.614 33.3936 166.914 34.9837 173.226C41.2838 198.013 47.7369 223.627 54.865 248.63C61.0482 270.329 68.0053 292.2 74.7374 313.35C77.4495 321.786 80.1375 330.24 82.8016 338.712C85.8376 348.403 88.8977 358.087 91.9818 367.765C97.3009 384.514 102.782 401.849 107.993 418.949C110.453 427.013 112.913 435.077 115.373 443.141C125.39 475.965 135.759 509.905 145.074 543.538C153.048 572.456 160.374 602.093 167.403 630.741C170.247 642.279 173.181 654.213 176.124 665.932C179.844 680.716 183.538 695.512 187.204 710.32C190.996 725.549 194.797 740.777 198.607 756.005C200.605 763.962 202.582 771.927 204.538 779.901C209.803 801.177 215.239 823.174 221.188 844.648C231.142 880.649 241.835 909.044 254.831 934.119C271.112 965.52 291.345 988.831 316.671 1005.38C333.429 1016.33 351.439 1022.7 370.204 1024.28C380.833 1025.18 391.282 1026 401.57 1026C405.89 1026 410.183 1025.87 414.449 1025.52C431.927 1024.16 450.36 1019.7 470.79 1011.91C495.144 1002.61 518.149 988.3 541.126 968.13C565.895 946.395 587.297 918.962 606.567 884.267C622.407 855.745 635.43 823.678 647.571 783.366C654.042 761.864 659.146 739.571 664.078 718.007C664.978 714.227 665.797 710.456 666.67 706.676C670.522 689.98 674.194 671.791 677.884 651.063C679.198 643.71 680.017 636.159 680.809 628.851C681.25 624.828 681.709 620.661 682.231 616.584C683.005 610.626 683.824 604.676 684.634 598.727C685.696 590.969 686.803 582.95 687.784 575.048C688.531 568.982 688.873 562.772 689.215 556.724L689.287 555.383C689.809 545.905 690.349 536.104 690.601 526.456C690.736 521.407 690.889 516.358 691.033 511.309C691.537 494.586 692.05 477.288 691.933 460.287C691.717 444.113 691.231 422.828 689.017 401.885Z" fill="#83CD20"/>
</svg>
