<svg width="2" height="3" viewBox="0 0 2 3" fill="none" xmlns="http://www.w3.org/2000/svg">
<path d="M1.99964 1.76892H0.691067C0.639006 1.91617 0.639006 2.07683 0.691067 2.22409C0.837408 2.28121 0.99987 2.28121 1.14621 2.22409C1.36428 2.16629 1.56155 2.04791 1.71517 1.88269C1.51112 1.9444 1.29338 1.9444 1.08933 1.88269C0.870367 1.97126 0.625559 1.97126 0.4066 1.88269C0.30636 1.798 0.224399 1.69383 0.165713 1.57645C0.107026 1.45908 0.0728342 1.33099 0.0652254 1.19999C-0.0217418 0.961113 -0.0217418 0.699204 0.0652254 0.460331C0.120213 0.352446 0.200857 0.259736 0.300057 0.190296C0.399258 0.120856 0.513971 0.0768108 0.634161 0.062072C0.723417 0.0211614 0.820465 0 0.91865 0C1.01684 0 1.11386 0.0211614 1.20312 0.062072C1.381 0.228735 1.50065 0.448122 1.54447 0.687914L1.99964 1.76892ZM1.65826 1.76892C1.65826 1.76892 1.65826 1.42756 1.65826 1.37066C1.59622 1.34048 1.52813 1.32478 1.45913 1.32478C1.39014 1.32478 1.32204 1.34048 1.26 1.37066C1.20794 1.51791 1.20794 1.67858 1.26 1.82583L1.65826 1.76892Z" fill="#D9D9D9"/>
</svg>
