<svg width="3" height="3" viewBox="0 0 3 3" fill="none" xmlns="http://www.w3.org/2000/svg">
<path d="M2.99955 2.44862H2.69348V1.28552C2.71442 1.14345 2.71442 0.999079 2.69348 0.857011C2.69348 0.857011 2.69348 0.857011 2.32619 0.857011C2.19252 0.921796 2.08402 1.02898 2.01758 1.16185C1.95115 1.29471 1.93051 1.4458 1.95889 1.59161V2.75467H1.65282V1.59161C1.65282 1.1631 1.34674 0.979434 1.04066 1.04065C0.940282 1.01473 0.834969 1.01473 0.734589 1.04065C0.70466 1.20252 0.70466 1.36851 0.734589 1.53038V2.69349H0.428506L0 0.673373H0.367301V1.04065C0.382421 0.905384 0.447074 0.780518 0.548802 0.690093C0.650531 0.599667 0.782123 0.550073 0.918228 0.550916C0.974063 0.518679 1.03741 0.501737 1.10188 0.501737C1.16635 0.501737 1.22969 0.518679 1.28553 0.550916C1.32761 0.411985 1.4069 0.287241 1.5148 0.19013C1.6227 0.0930203 1.7551 0.027266 1.89768 0C2.32619 0 2.57105 3.73994e-06 2.69348 0.673373L2.99955 2.44862Z" fill="#D9D9D9"/>
</svg>
