<svg width="3" height="4" viewBox="0 0 3 4" fill="none" xmlns="http://www.w3.org/2000/svg">
<path d="M2.2352 2.08193C2.2352 2.08193 2.2352 2.40124 2.2352 2.52897C2.2352 2.65669 2.2352 2.52897 2.2352 2.97601C2.26931 3.07971 2.26931 3.19164 2.2352 3.29534H1.85201H1.27724H0.63862L0 0.102192H0.830202C1.22319 -0.0340641 1.65062 -0.0340641 2.04361 0.102192C2.2537 0.383038 2.38264 0.716167 2.41642 1.06526C2.45021 1.41436 2.38753 1.76601 2.2352 2.08193ZM1.78816 2.08193V1.50719H1.40497H0.127705L0.574744 3.99784C1.66041 3.48694 1.91588 3.0399 1.78816 2.20968V2.08193Z" fill="#D9D9D9"/>
</svg>
