<svg width="3" height="3" viewBox="0 0 3 3" fill="none" xmlns="http://www.w3.org/2000/svg">
<path d="M1.92272 2.93555C1.65177 2.99787 1.37022 2.99787 1.09927 2.93555C0.901718 2.94079 0.705915 2.89727 0.529156 2.80889C0.352397 2.72051 0.200122 2.58998 0.085778 2.42879C-0.0285927 2.03577 -0.0285927 1.61828 0.085778 1.22525V0.528473L0.465823 0.021762C0.6122 -0.00725401 0.762848 -0.00725401 0.909225 0.021762H1.54267H1.92272H2.30279V0.465164H1.92272C1.77673 0.432436 1.62531 0.432436 1.47932 0.465164C1.43584 0.588122 1.43584 0.722252 1.47932 0.845209C1.44335 1.01221 1.44335 1.18497 1.47932 1.35197C1.3778 1.66055 1.3778 1.99355 1.47932 2.30213C1.55403 2.41905 1.65708 2.51516 1.7789 2.5816C1.90071 2.64805 2.03734 2.68266 2.1761 2.68217H2.99957L1.92272 2.93555Z" fill="#D9D9D9"/>
</svg>
