<svg width="994" height="368" viewBox="0 0 994 368" fill="none" xmlns="http://www.w3.org/2000/svg">
<path d="M8.31663 367.273C15.7872 362.151 23.2398 356.958 30.5483 351.684C69.2513 323.719 105.362 292.162 132.49 267.788C146.981 254.773 161.364 241.164 175.27 227.996C182.321 221.323 189.384 214.669 196.458 208.033C199.692 205.032 202.912 202.005 206.116 198.951C215.035 190.535 224.252 181.849 233.649 173.677C253 156.873 273.864 138.943 295.34 121.671C318.264 103.238 344.294 86.2622 374.915 69.773C409.108 51.2783 445.181 36.4931 482.518 25.6696C494.804 22.1413 508.287 18.9371 523.723 15.8768C538.691 12.9066 554.046 10.6474 567.088 8.82031L571.823 8.15416C582.624 6.61504 593.775 5.03101 604.702 4.76099C615.134 4.50897 625.791 4.923 636.097 5.31903C642.325 5.56205 648.779 5.81399 655.133 5.91299C674.512 6.21902 693.179 9.84637 707.283 12.9696C740.994 20.3539 773.082 33.8068 801.979 52.6716C826.281 68.5759 848.603 89.1244 870.295 115.505C890.096 139.627 907.639 166.035 923.795 196.233C949.078 243.495 967.196 286.825 979.203 328.705C982.803 341.306 986.485 354.114 989.221 367.264H994C991.219 353.637 987.421 340.379 983.703 327.409C971.606 285.204 953.353 241.578 927.899 194.018C911.599 163.542 893.94 136.882 873.895 112.517C851.897 85.7672 829.206 64.9036 804.527 48.7383C775.154 29.5849 742.546 15.928 708.291 8.43323C693.98 5.26499 674.989 1.57471 655.187 1.23268C648.887 1.13367 642.46 0.881621 636.286 0.638603C625.908 0.242572 615.179 -0.180456 604.603 0.0805643C593.397 0.359586 582.102 1.96176 571.175 3.50988L566.449 4.18493C553.344 5.98507 537.908 8.28926 522.823 11.2865C507.252 14.3737 493.652 17.587 481.24 21.1872C443.583 32.098 407.202 47.0069 372.719 65.6596C341.837 82.2839 315.573 99.4122 292.423 118.035C270.894 135.352 249.976 153.308 230.598 170.149C221.129 178.357 211.876 187.097 202.921 195.549C199.704 198.585 196.491 201.609 193.281 204.621C186.182 211.222 179.111 217.882 172.066 224.603C158.178 237.744 143.822 251.335 129.376 264.314C102.374 288.616 66.3711 320.064 27.8301 347.885C18.7034 354.483 9.34272 360.945 0 367.291L8.31663 367.273Z" fill="#83CD20"/>
</svg>
