<svg width="2" height="2" viewBox="0 0 2 2" fill="none" xmlns="http://www.w3.org/2000/svg">
<path d="M1.95317 1.07869H0.459707C0.417158 1.26295 0.417158 1.45451 0.459707 1.63876C0.620761 1.69571 0.796482 1.69571 0.957536 1.63876C1.17747 1.72544 1.42211 1.72544 1.64204 1.63876C1.40256 1.73564 1.13478 1.73564 0.895296 1.63876C0.797673 1.68351 0.691553 1.70665 0.584164 1.70665C0.476775 1.70665 0.370655 1.68351 0.273032 1.63876C0.0963027 1.41803 0 1.14369 0 0.860923C0 0.578156 0.0963027 0.303818 0.273032 0.0830824C0.378862 0.0285071 0.496211 0 0.615284 0C0.734358 0 0.851706 0.0285071 0.957536 0.0830824C1.05388 0.0339163 1.1605 0.00826076 1.26867 0.00826076C1.37683 0.00826076 1.48345 0.0339163 1.5798 0.0830824C1.67668 0.322565 1.67668 0.590296 1.5798 0.829779L1.95317 1.07869ZM1.95317 1.07869C2.01565 0.918636 2.01565 0.740923 1.95317 0.580864H1.51758C1.48543 0.724282 1.48543 0.873036 1.51758 1.01645L1.95317 1.07869Z" fill="#D9D9D9"/>
</svg>
