<svg width="3" height="3" viewBox="0 0 3 3" fill="none" xmlns="http://www.w3.org/2000/svg">
<path d="M2.53451 3.00139H2.13434V1.73411C2.15715 1.57932 2.15715 1.42202 2.13434 1.26723C2.0718 1.23757 2.00344 1.22219 1.93422 1.22219C1.86501 1.22219 1.79667 1.23757 1.73414 1.26723C1.68182 1.24325 1.62493 1.23084 1.56738 1.23084C1.50983 1.23084 1.45297 1.24325 1.40065 1.26723C1.35179 1.33526 1.32549 1.41694 1.32549 1.5007C1.32549 1.58446 1.35179 1.66608 1.40065 1.73411C1.40065 1.26723 1.40065 1.13382 0.800369 1.20052C0.764982 1.27325 0.746582 1.3531 0.746582 1.43398C0.746582 1.51487 0.764982 1.59472 0.800369 1.66745V2.93468H0.400172L0 0.733632V1.13385C0.028512 0.991779 0.102517 0.862827 0.210823 0.766555C0.319129 0.670283 0.455819 0.611916 0.600258 0.600258C0.661094 0.565134 0.730122 0.546623 0.800369 0.546623C0.870617 0.546623 0.939619 0.565134 1.00046 0.600258C1.04631 0.448883 1.13269 0.312916 1.25026 0.207108C1.36782 0.101301 1.5121 0.0297081 1.66745 0C2.13434 0 2.40111 -4.68117e-05 2.53451 0.733632V3.00139Z" fill="#D9D9D9"/>
</svg>
