<svg width="3" height="4" viewBox="0 0 3 4" fill="none" xmlns="http://www.w3.org/2000/svg">
<path d="M1.80085 2.46785C1.83767 2.6213 1.83767 2.78128 1.80085 2.93473C1.82977 3.06656 1.82977 3.20307 1.80085 3.3349H0L0.400197 0H1.26725C1.48316 0.00412366 1.69578 0.05379 1.89117 0.145739C2.08657 0.237688 2.26034 0.369861 2.40113 0.533597C2.50657 0.879022 2.50571 1.24818 2.39867 1.59311C2.29162 1.93803 2.08333 2.24281 1.80085 2.46785ZM1.33397 2.46785C1.40003 2.27321 1.40003 2.06223 1.33397 1.86759C1.3735 1.71447 1.3735 1.55382 1.33397 1.4007C1.22503 1.36921 1.10941 1.36921 1.00048 1.4007H0.533571H0.133399V4.00192H0.466884C0.800374 3.73513 1.26727 3.33492 1.33397 2.46785Z" fill="#D9D9D9"/>
</svg>
