<svg width="9" height="12" viewBox="0 0 9 12" fill="none" xmlns="http://www.w3.org/2000/svg">
<path d="M8.89241 2.04522C9.0355 2.57825 9.0355 3.13959 8.89241 3.67261C8.73037 4.13363 8.49484 4.5654 8.19496 4.95124C7.53453 5.75459 6.60539 6.29145 5.57956 6.46238H4.3009L5.11459 9.83335C5.05624 9.98284 5.05624 10.1488 5.11459 10.2983C5.26672 10.3404 5.42743 10.3404 5.57956 10.2983H6.39324H7.03256V10.8795L2.2667 11.9838V11.4026H2.78977H3.25473C3.34278 11.3601 3.42174 11.3009 3.48722 11.2282C3.54479 11.0586 3.54479 10.8748 3.48722 10.7052L1.62737 2.68455V2.2196C1.57628 2.13971 1.50804 2.07218 1.42762 2.02192C1.3472 1.97166 1.25661 1.93992 1.16241 1.929H0V1.40592L5.05647 0.243509C5.93808 -0.0811696 6.90652 -0.0811696 7.78812 0.243509C8.09542 0.441905 8.35421 0.706818 8.54535 1.01868C8.73649 1.33054 8.8551 1.68136 8.89241 2.04522ZM6.97444 4.48629C7.02942 4.19829 7.02942 3.90248 6.97444 3.61448C7.00667 3.36365 7.00667 3.10975 6.97444 2.85893C6.90393 2.56019 6.80667 2.26841 6.68383 1.98711C6.55755 1.72219 6.37972 1.48509 6.16075 1.28968C5.91405 1.07499 5.61195 0.934008 5.28895 0.882836C4.90617 0.797584 4.50933 0.797584 4.12655 0.882836H3.02226L4.12655 5.76494H4.94023C5.44697 5.7801 5.94857 5.65971 6.39324 5.41621C6.6662 5.16342 6.86683 4.84242 6.97444 4.48629Z" fill="#D9D9D9"/>
</svg>
