<svg width="2" height="2" viewBox="0 0 2 2" fill="none" xmlns="http://www.w3.org/2000/svg">
<path d="M1.16855 1.91498C1.05299 1.97055 0.926414 1.99936 0.798189 1.99936C0.669964 1.99936 0.543368 1.97055 0.427808 1.91498C0.238202 1.75721 0.115943 1.53304 0.0859441 1.2882C0.0293078 1.16286 0 1.02689 0 0.889349C0 0.751804 0.0293078 0.615838 0.0859441 0.490494C0.237683 0.283887 0.461273 0.141549 0.712701 0.0915954C0.816645 0.0315834 0.934562 0 1.05459 0C1.17461 0 1.29253 0.0315834 1.39647 0.0915954C1.50881 0.155873 1.60383 0.246535 1.67332 0.355731C1.74281 0.464927 1.78468 0.589381 1.79533 0.718374C1.88219 0.977185 1.88219 1.25727 1.79533 1.51608C1.63401 1.71217 1.4145 1.8519 1.16855 1.91498ZM1.16855 0.205579C1.09771 0.170434 1.0197 0.152152 0.940625 0.152152C0.861548 0.152152 0.783538 0.170434 0.712701 0.205579C0.651823 0.390633 0.651823 0.590312 0.712701 0.775366C0.712701 0.775366 0.712701 1.17423 0.712701 1.23121C0.781997 1.27122 0.860609 1.29229 0.940625 1.29229C1.02064 1.29229 1.09925 1.27122 1.16855 1.23121C1.31511 1.28842 1.47783 1.28842 1.6244 1.23121C1.68152 1.04558 1.68152 0.847062 1.6244 0.661426C1.65954 0.590589 1.67782 0.512579 1.67782 0.433502C1.67782 0.354426 1.65954 0.276416 1.6244 0.205579C1.5551 0.165571 1.47649 0.144501 1.39647 0.144501C1.31646 0.144501 1.23784 0.165571 1.16855 0.205579Z" fill="#D9D9D9"/>
</svg>
