<svg width="2" height="2" viewBox="0 0 2 2" fill="none" xmlns="http://www.w3.org/2000/svg">
<path d="M1.74838 1.45731H0.371894C0.311804 1.61124 0.311804 1.78215 0.371894 1.93609C0.444676 1.97811 0.527243 2.00019 0.611285 2.00019C0.695327 2.00019 0.777894 1.97811 0.850676 1.93609C0.944564 1.97912 1.0466 2.00138 1.14988 2.00138C1.25316 2.00138 1.35524 1.97912 1.44913 1.93609H0.730958C0.478724 1.89 0.248 1.76409 0.0726889 1.57698C-0.0242296 1.3267 -0.0242296 1.04927 0.0726889 0.798991C-0.0146092 0.567564 -0.0146092 0.312244 0.0726889 0.0808168C0.18491 0.0275858 0.307547 0 0.431753 0C0.555959 0 0.678596 0.0275858 0.790817 0.0808168C0.875521 0.0428421 0.967288 0.0232405 1.06012 0.0232405C1.15294 0.0232405 1.24475 0.0428421 1.32946 0.0808168C1.39931 0.315107 1.39931 0.564701 1.32946 0.798991L1.74838 1.45731ZM1.74838 1.45731C1.80847 1.30337 1.80847 1.13246 1.74838 0.978523H1.38927H1.03021C0.979738 1.1136 0.979738 1.26236 1.03021 1.39745L1.74838 1.45731Z" fill="#D9D9D9"/>
</svg>
