<svg width="5" height="5" viewBox="0 0 5 5" fill="none" xmlns="http://www.w3.org/2000/svg">
<path d="M1.33058 0.401929C1.34795 0.281592 1.34795 0.159398 1.33058 0.0390611H1.63297H2.05634H2.54019H3.14499C3.32269 -0.0130204 3.51161 -0.0130204 3.68931 0.0390611C3.87359 0.156776 4.02046 0.324638 4.11267 0.522916C4.1557 0.762924 4.1557 1.00864 4.11267 1.24865L4.71747 4.39366H3.99171L3.38691 1.43013C3.38237 1.11107 3.25193 0.806693 3.02402 0.583363C2.90136 0.524385 2.76701 0.493799 2.63091 0.493799C2.4948 0.493799 2.36043 0.524385 2.23777 0.583363C1.97415 0.654918 1.72743 0.778312 1.51201 0.946277C1.30343 1.15309 1.13885 1.39993 1.02818 1.67201L1.63297 4.99845H0.907216L0 0.280988H0.604795L1.33058 0.401929Z" fill="#D9D9D9"/>
</svg>
