<svg width="2" height="2" viewBox="0 0 2 2" fill="none" xmlns="http://www.w3.org/2000/svg">
<path d="M1.93128 1.99875V0.852038C1.93128 0.409453 1.75022 0.228417 1.38811 0.308887C1.31608 0.172832 1.19297 0.0709352 1.04583 0.025662C0.89869 -0.0196112 0.739595 -0.00455803 0.603539 0.0674712C0.467484 0.1395 0.365611 0.262588 0.320338 0.409726C0.275064 0.556864 0.290094 0.715983 0.362124 0.852038V1.99875L0 0.00710573V0.852038C0.0363786 0.72253 0.105453 0.604535 0.200574 0.509414C0.295694 0.414294 0.413666 0.345266 0.543174 0.308887C0.543174 0.308887 0.965643 0.308887 1.08635 0.308887C1.20705 0.308887 1.08635 0.308878 1.08635 0.912403L1.93128 1.99875Z" fill="#D9D9D9"/>
</svg>
