<svg width="54" height="18" viewBox="0 0 54 18" fill="none" xmlns="http://www.w3.org/2000/svg">
<path d="M53.9651 10.4563L53.2382 17.2781L8.05793 12.7489C6.87521 12.6309 5.72786 12.2783 4.68292 11.7118C3.63798 11.1454 2.71638 10.3764 1.97196 9.44976C1.22755 8.52315 0.675224 7.45748 0.347275 6.31502C0.019326 5.17255 -0.0776779 3.97619 0.061918 2.79581C0.182331 1.83637 0.426657 0.896591 0.788813 0L49.5477 4.97658C50.2005 5.03905 50.8342 5.23133 51.4115 5.54217C51.9889 5.85302 52.4983 6.27612 52.9099 6.78663C53.3214 7.29714 53.6267 7.88475 53.8079 8.51494C53.9892 9.14513 54.0426 9.80521 53.9651 10.4563Z" fill="#D9D9D9"/>
</svg>
