<svg width="3" height="3" viewBox="0 0 3 3" fill="none" xmlns="http://www.w3.org/2000/svg">
<path d="M1.31104 2.9144C1.19224 2.97152 1.06211 3.00119 0.930292 3.00119C0.798471 3.00119 0.668325 2.97152 0.549524 2.9144C0.433819 2.82125 0.337946 2.70589 0.267523 2.5751C0.197101 2.44432 0.153556 2.30078 0.139483 2.1529C-0.0464945 1.68247 -0.0464945 1.1589 0.139483 0.688468C0.218424 0.514753 0.340706 0.364227 0.494576 0.251389C0.648446 0.138551 0.828745 0.0671871 1.01815 0.0441117C1.16882 -0.0147039 1.33609 -0.0147039 1.48676 0.0441117C1.48676 0.0441117 1.48678 0.04411 1.77967 0.454152C1.80095 0.613244 1.78562 0.775115 1.73487 0.927386C1.68411 1.07966 1.59924 1.21832 1.48676 1.33282C1.24838 1.6271 0.918498 1.83326 0.549524 1.91859C0.613602 2.10834 0.736783 2.27258 0.900997 2.38722C0.969753 2.4351 1.05153 2.46074 1.13531 2.46074C1.21909 2.46074 1.30087 2.4351 1.36963 2.38722H1.77967V1.97718C1.95121 1.59975 2.08844 1.20763 2.18971 0.805603C2.30421 1.22754 2.30421 1.67238 2.18971 2.09431C2.01114 2.46901 1.69714 2.76206 1.31104 2.9144ZM0.490956 1.56714C0.77324 1.49881 1.02224 1.3328 1.19388 1.09851C1.24098 0.997635 1.26539 0.887659 1.26539 0.77633C1.26539 0.665002 1.24098 0.555026 1.19388 0.454152C1.19388 0.102687 1.19388 0.454152 1.19388 0.454152C1.19388 0.805617 0.900994 0.454163 0.783839 0.922783C0.671224 1.13043 0.573357 1.34575 0.490956 1.56714Z" fill="#D9D9D9"/>
</svg>
