<svg width="2" height="3" viewBox="0 0 2 3" fill="none" xmlns="http://www.w3.org/2000/svg">
<path d="M1.24803 2.28158C1.135 2.34683 1.0068 2.38122 0.876288 2.38122C0.745779 2.38122 0.617561 2.34683 0.504537 2.28158C0.38238 2.21169 0.279071 2.11315 0.203512 1.99442C0.127953 1.87568 0.0824155 1.74036 0.0708385 1.60009C-0.0236128 1.31867 -0.0236128 1.01407 0.0708385 0.73265C0.258883 0.503889 0.52264 0.350036 0.81433 0.298952C0.930509 0.243843 1.05748 0.215285 1.18607 0.215285C1.31466 0.215285 1.44163 0.243843 1.55781 0.298952C1.76398 0.47051 1.89694 0.714263 1.92956 0.980485C2.02401 1.2619 2.02401 1.56646 1.92956 1.84788C1.76457 2.07254 1.52142 2.22726 1.24803 2.28158ZM0.938247 0.422893C0.938247 0.422893 0.566494 0.422893 0.504537 0.422893C0.43834 0.624112 0.43834 0.841236 0.504537 1.04245C0.520008 1.14172 0.55544 1.23682 0.608684 1.32201C0.661927 1.4072 0.731885 1.48072 0.81433 1.53812C0.900809 1.5817 0.996299 1.6044 1.09314 1.6044C1.18998 1.6044 1.28547 1.5817 1.37195 1.53812C1.46623 1.53316 1.55714 1.50135 1.63397 1.44647C1.7108 1.39159 1.77037 1.3159 1.80564 1.22832C1.87204 1.04838 1.87204 0.85067 1.80564 0.670727C1.80564 0.360941 1.80564 0.175045 1.49585 0.113088C1.42811 0.0572816 1.34677 0.0204668 1.26014 0.00640057C1.17351 -0.00766565 1.08469 0.00155361 1.00277 0.0330606C0.920852 0.0645676 0.848765 0.117247 0.793886 0.185741C0.739006 0.254236 0.703299 0.336076 0.690413 0.422893H0.938247Z" fill="#D9D9D9"/>
</svg>
