<svg width="2" height="2" viewBox="0 0 2 2" fill="none" xmlns="http://www.w3.org/2000/svg">
<path d="M1.14215 1.9264C1.041 1.97363 0.930724 1.9981 0.819091 1.9981C0.707457 1.9981 0.597179 1.97363 0.496029 1.9264C0.340992 1.95805 0.181149 1.95805 0.0261126 1.9264C-0.00870418 1.79155 -0.00870418 1.65008 0.0261126 1.51523C0.0261126 1.1628 0.0261287 0.986599 0.730987 0.927861H1.14215C1.14215 0.575432 1.14215 0.399194 1.14215 0.399194C0.910174 0.346321 0.669256 0.346321 0.437278 0.399194V0.0467789C0.668092 -0.015593 0.911339 -0.015593 1.14215 0.0467789C1.55332 0.0467789 1.78826 0.0467628 1.72953 0.810359L1.14215 1.9264ZM1.14215 0.86911H0.319821C0.319821 0.86911 0.319807 0.86911 0.672236 0.86911C1.02467 0.86911 0.672236 0.869124 0.672236 0.516695L1.14215 0.86911Z" fill="#D9D9D9"/>
</svg>
