<svg width="3" height="3" viewBox="0 0 3 3" fill="none" xmlns="http://www.w3.org/2000/svg">
<path d="M2.49999 2.85516C2.25113 2.94314 1.97962 2.94314 1.73076 2.85516C1.5651 2.9508 1.37717 3.00114 1.18588 3.00114C0.994595 3.00114 0.806683 2.9508 0.641023 2.85516C0.29252 2.5902 0.0622582 2.19872 0 1.76539V1.06026C0.00168837 0.854487 0.0554911 0.652496 0.156377 0.473143C0.257263 0.293791 0.401943 0.142951 0.576919 0.0346526C0.76645 -0.0115509 0.964307 -0.0115509 1.15384 0.0346526H1.92307V0.483365H1.08973H0.705126C0.669486 0.609092 0.669486 0.742234 0.705126 0.867961C0.674018 1.05901 0.674018 1.25386 0.705126 1.4449C0.740867 1.77573 0.874817 2.08829 1.08973 2.34233C1.35887 2.44031 1.65393 2.44031 1.92307 2.34233H2.30768H2.62818L2.49999 2.85516Z" fill="#D9D9D9"/>
</svg>
