<svg width="2" height="3" viewBox="0 0 2 3" fill="none" xmlns="http://www.w3.org/2000/svg">
<path d="M1.92225 1.40768C1.98242 1.54505 2.00831 1.695 1.99771 1.84459C1.98711 1.99418 1.94034 2.13896 1.86141 2.26648C1.78247 2.39399 1.67373 2.50042 1.54456 2.57662C1.41538 2.65281 1.26963 2.69646 1.11985 2.70385C0.897978 2.76731 0.66276 2.76731 0.440892 2.70385H1.11985C1.22368 2.69226 1.32344 2.65689 1.41136 2.60044C1.49928 2.544 1.57298 2.468 1.62673 2.37841C1.68048 2.28882 1.71283 2.18804 1.72126 2.08391C1.7297 1.97977 1.71399 1.87507 1.67535 1.778C1.67535 2.08662 1.67536 2.21007 1.05813 2.2718C0.961302 2.31618 0.856042 2.33914 0.749524 2.33914C0.643006 2.33914 0.537723 2.31618 0.440892 2.2718C0.235503 2.10089 0.103067 1.85806 0.0705705 1.59284C-0.0235235 1.31249 -0.0235235 1.00908 0.0705705 0.728729C0.134154 0.614783 0.222718 0.516728 0.329616 0.441899C0.436515 0.36707 0.558962 0.317413 0.687788 0.296671C0.791002 0.237081 0.908085 0.205692 1.02727 0.205692C1.14645 0.205692 1.26353 0.237081 1.36674 0.296671H1.73709L1.92225 1.40768ZM1.49019 0.728729V0.420096C1.53255 0.300285 1.53255 0.169586 1.49019 0.0497749C1.42288 0.0170276 1.34901 0 1.27416 0C1.19931 0 1.12544 0.0170276 1.05813 0.0497749C0.883265 0.100634 0.730901 0.209486 0.626076 0.358407C0.55913 0.579773 0.55913 0.815995 0.626076 1.03736C0.592821 1.20028 0.592821 1.36819 0.626076 1.53111C0.785825 1.58759 0.960097 1.58759 1.11985 1.53111C1.26066 1.57405 1.41108 1.57405 1.5519 1.53111C1.56995 1.36368 1.55173 1.19434 1.49848 1.03458C1.44523 0.874823 1.35819 0.72842 1.24329 0.605304L1.49019 0.728729Z" fill="#D9D9D9"/>
</svg>
