<svg width="3" height="3" viewBox="0 0 3 3" fill="none" xmlns="http://www.w3.org/2000/svg">
<path d="M2.99952 2.92259H2.23042V1.46127C2.27937 1.25909 2.27937 1.0482 2.23042 0.846025C2.16027 0.805523 2.08067 0.784178 1.99967 0.784178C1.91867 0.784178 1.8391 0.805523 1.76895 0.846025C1.76895 0.846025 1.76895 0.846022 1.76895 1.3844V2.84567H1.3844V1.30747C1.3844 0.846006 1.38439 0.538374 0.922923 0.538374C0.461457 0.538374 0.922912 0.538374 0.461447 0.538374C0.419097 0.635409 0.397252 0.74015 0.397252 0.846025C0.397252 0.951899 0.419097 1.05658 0.461447 1.15362V2.53802H0V0V0.461447C0.125579 0.378746 0.272648 0.334643 0.423012 0.334643C0.573377 0.334643 0.720446 0.378746 0.846025 0.461447C0.983342 0.372081 1.14364 0.324491 1.30747 0.324491C1.47131 0.324491 1.63163 0.372081 1.76895 0.461447C2.30732 0.461447 2.53806 0.461442 2.46115 1.53819L2.99952 2.92259Z" fill="#D9D9D9"/>
</svg>
