<svg width="2" height="2" viewBox="0 0 2 2" fill="none" xmlns="http://www.w3.org/2000/svg">
<path d="M1.2674 1.47294C1.21849 1.58876 1.14434 1.69221 1.05038 1.77574C0.956407 1.85927 0.84498 1.92078 0.724224 1.95578C0.568988 2.01637 0.39664 2.01637 0.241404 1.95578C0.194426 1.83964 0.194426 1.70981 0.241404 1.59368C0.224032 1.50636 0.2244 1.41641 0.242486 1.32924C0.260573 1.24206 0.296011 1.15945 0.346687 1.08626C0.397363 1.01306 0.462249 0.950793 0.537476 0.903179C0.612703 0.855566 0.696734 0.823539 0.784578 0.809063H1.32775C1.32775 0.446947 1.32775 0.326244 0.844932 0.386597C0.721845 0.390662 0.601823 0.426054 0.496219 0.489416C0.390615 0.552779 0.302914 0.64205 0.241404 0.748743V0.0244961C0.441254 -0.00816536 0.645083 -0.00816536 0.844932 0.0244961C1.32775 0.0244961 1.62951 0.0244869 1.68986 0.628013L1.2674 1.47294ZM0.784578 0.567647H0.301758H0C0.056585 0.594488 0.118422 0.608443 0.18105 0.608443C0.243678 0.608443 0.305527 0.594488 0.362112 0.567647C0.406324 0.506086 0.430098 0.432229 0.430098 0.356437C0.430098 0.280645 0.406324 0.206742 0.362112 0.145181L0.784578 0.567647Z" fill="#D9D9D9"/>
</svg>
