<svg width="2" height="3" viewBox="0 0 2 3" fill="none" xmlns="http://www.w3.org/2000/svg">
<path d="M2.00022 0.254603H1.61834H0.727251V0.636484C0.691113 0.804293 0.691113 0.977883 0.727251 1.14569C0.663343 1.30941 0.663343 1.49118 0.727251 1.6549C0.689523 1.80102 0.689523 1.95432 0.727251 2.10044H1.17279H1.55468V1.08203H0.918191V1.14569H2.00022V2.80059H1.04552H0.472647C0.296418 2.70973 0.143851 2.57892 0.0271035 2.41866C-0.00903449 2.25085 -0.00903449 2.07731 0.0271035 1.9095C-0.00778211 1.67742 -0.00778211 1.44143 0.0271035 1.20935C0.0112383 0.976243 0.0112383 0.742319 0.0271035 0.509207C0.122816 0.317934 0.252162 0.145441 0.408984 0H0.918191H1.55468H2.00022V0.254603Z" fill="#D9D9D9"/>
</svg>
