<svg width="4" height="4" viewBox="0 0 4 4" fill="none" xmlns="http://www.w3.org/2000/svg">
<path d="M2.34534 3.48226H2.00001H1.53957H0.964038C0.797914 3.54946 0.612174 3.54946 0.446051 3.48226C0.284107 3.3788 0.146632 3.24133 0.0431751 3.07938C0.0109755 2.88889 0.0109755 2.69435 0.0431751 2.50385C-0.0118785 2.30343 -0.0143254 2.09219 0.0360836 1.89056C0.0864926 1.68892 0.18805 1.50368 0.33094 1.35275C0.462453 1.21094 0.618427 1.09398 0.791383 1.00744H1.42446H2.63311C2.63311 1.00744 2.63311 1.00745 2.63311 0.662127C2.48415 0.609462 2.32162 0.609462 2.17267 0.662127H1.42446H0.848927H0.273396V0.0865523H0.618706H1.02158C1.3966 -0.0288508 1.79765 -0.0288508 2.17267 0.0865523C2.4639 0.189202 2.72228 0.3681 2.92087 0.604561C2.92087 0.604561 2.92087 0.604559 2.92087 1.00744L3.4964 4.00022H2.92087L2.34534 3.48226ZM2.00001 1.98584H0.906493C0.773969 1.99354 0.644394 2.02813 0.52566 2.0875C0.406927 2.14686 0.301502 2.2298 0.21583 2.3312C0.160264 2.42744 0.131017 2.53657 0.131017 2.6477C0.131017 2.75883 0.160264 2.86801 0.21583 2.96425C0.21583 2.96425 0.21583 2.96425 0.21583 3.36713H0.561162H0.964038H1.30937L2.00001 1.98584Z" fill="#D9D9D9"/>
</svg>
