<svg width="3" height="3" viewBox="0 0 3 3" fill="none" xmlns="http://www.w3.org/2000/svg">
<path d="M0.795609 2.99249C0.653283 2.98585 0.514698 2.94488 0.391626 2.87309C0.268554 2.8013 0.164675 2.70081 0.0888404 2.58019C0.0302955 2.45062 0 2.31007 0 2.16789C0 2.02571 0.0302955 1.88517 0.0888404 1.7556C0.0950492 1.25462 0.283469 0.773028 0.618917 0.400883C0.752562 0.258807 0.919416 0.15214 1.10446 0.0904581C1.28951 0.0287763 1.48695 0.0140246 1.67911 0.0474984C1.74334 0.0162488 1.81386 0 1.88529 0C1.95671 0 2.02718 0.0162488 2.09141 0.0474984C2.15055 0.198998 2.15055 0.367208 2.09141 0.518707C2.10778 0.706415 2.0789 0.895317 2.00715 1.06954C1.93541 1.24377 1.82291 1.39823 1.67911 1.51999C1.37202 1.74119 0.9961 1.84563 0.618917 1.81451C0.566324 2.00732 0.566324 2.21069 0.618917 2.4035C0.681594 2.43969 0.752714 2.45873 0.825088 2.45873C0.897461 2.45873 0.968536 2.43969 1.03121 2.4035C1.09645 2.43104 1.16657 2.4452 1.23738 2.4452C1.3082 2.4452 1.37827 2.43104 1.44351 2.4035C1.57962 2.43048 1.7197 2.43048 1.85581 2.4035C2.15699 2.10752 2.41481 1.77042 2.62153 1.40221C2.50173 1.85814 2.28022 2.28101 1.97363 2.6391C1.64122 2.90439 1.21915 3.03098 0.795609 2.99249ZM0.795609 1.51999C1.04501 1.59712 1.31193 1.59712 1.56134 1.51999C1.60369 1.42759 1.62559 1.32712 1.62559 1.22548C1.62559 1.12383 1.60369 1.02341 1.56134 0.931004V0.518707C1.44839 0.52058 1.33834 0.554865 1.24435 0.617524C1.15036 0.680182 1.07638 0.768556 1.03121 0.872092C0.816322 1.05377 0.636661 1.27338 0.501137 1.51999H0.795609Z" fill="#D9D9D9"/>
</svg>
