<svg width="2" height="2" viewBox="0 0 2 2" fill="none" xmlns="http://www.w3.org/2000/svg">
<path d="M1.31857 1.90726C1.19899 1.96892 1.0664 2.00108 0.931851 2.00108C0.797307 2.00108 0.664712 1.96892 0.545132 1.90726C0.383366 1.94607 0.214714 1.94607 0.0529486 1.90726C-0.0176495 1.7264 -0.0176495 1.5256 0.0529486 1.34475C0.0608443 1.2453 0.0898096 1.14868 0.137921 1.06129C0.186032 0.973905 0.252173 0.897772 0.331978 0.837919C0.411782 0.778065 0.503425 0.73588 0.600788 0.714162C0.698151 0.692444 0.799012 0.691699 0.896688 0.711963H1.5998C1.62094 0.642378 1.6264 0.568957 1.61579 0.497011C1.60517 0.425066 1.57874 0.356357 1.5384 0.295846C1.49806 0.235336 1.44482 0.184511 1.38249 0.147038C1.32016 0.109565 1.25031 0.0863736 1.17794 0.0791249C0.925199 0.00683306 0.657248 0.00683306 0.404504 0.0791249C0.526744 0.0269034 0.658296 0 0.791224 0C0.924151 0 1.0557 0.0269034 1.17794 0.0791249C1.74044 0.0791249 1.95137 0.0791592 1.88105 0.993218L1.31857 1.90726ZM1.31857 0.641636H0.334177C0.334177 0.641636 0.334177 0.641657 0.334177 0.993218C0.412058 1.02609 0.495734 1.043 0.580269 1.043C0.664803 1.043 0.74848 1.02609 0.826361 0.993218C0.863388 0.929085 0.882901 0.856291 0.882901 0.782236C0.882901 0.708182 0.863388 0.635441 0.826361 0.571308L1.31857 0.641636Z" fill="#D9D9D9"/>
</svg>
