<svg width="2" height="3" viewBox="0 0 2 3" fill="none" xmlns="http://www.w3.org/2000/svg">
<path d="M0.612454 1.74969C0.427678 1.81048 0.228296 1.81048 0.0435192 1.74969C-0.0145064 1.50657 -0.0145064 1.25321 0.0435192 1.01008C0.0757173 0.733499 0.195289 0.47437 0.384872 0.270427C0.50026 0.214946 0.626666 0.186131 0.754699 0.186131C0.882732 0.186131 1.0091 0.214946 1.12448 0.270427C1.25115 0.256873 1.37896 0.282309 1.49079 0.343307C1.60263 0.404306 1.69315 0.497992 1.75033 0.611823C1.91191 0.813641 1.99996 1.06447 1.99996 1.323C1.99996 1.58154 1.91191 1.83236 1.75033 2.03418C1.65826 2.09484 1.5546 2.13573 1.44591 2.15425C1.33723 2.17277 1.22589 2.16849 1.11893 2.14175C1.01197 2.11501 0.911724 2.06638 0.824541 1.99889C0.737358 1.9314 0.665146 1.84654 0.612454 1.74969ZM0.612454 0.0428443C0.466113 -0.0142814 0.30363 -0.0142814 0.157289 0.0428443C0.117273 0.122257 0.0964323 0.209977 0.0964323 0.298902C0.0964323 0.387827 0.117273 0.475504 0.157289 0.554916C0.116378 0.644173 0.0952169 0.741177 0.0952169 0.839362C0.0952169 0.937548 0.116378 1.0346 0.157289 1.12385C0.128013 1.19561 0.117571 1.27367 0.126904 1.35061C0.136237 1.42755 0.165051 1.5008 0.210636 1.56348C0.256221 1.62616 0.31707 1.67618 0.387389 1.70876C0.457709 1.74134 0.535165 1.75544 0.612454 1.74969C0.691867 1.78971 0.779544 1.81055 0.868469 1.81055C0.957394 1.81055 1.04507 1.78971 1.12448 1.74969C1.19091 1.58547 1.19091 1.40188 1.12448 1.23766C1.18527 1.05289 1.18527 0.853463 1.12448 0.668686C1.12167 0.457404 1.04062 0.254686 0.896944 0.0997508L0.612454 0.0428443Z" fill="#D9D9D9"/>
</svg>
