<svg width="2" height="2" viewBox="0 0 2 2" fill="none" xmlns="http://www.w3.org/2000/svg">
<path d="M1.77653 1.92087H1.35232V1.49661C1.26099 1.6141 1.14248 1.70766 1.00701 1.76924C0.871534 1.83082 0.723144 1.85859 0.574573 1.85016C0.497472 1.88767 0.412852 1.90717 0.32711 1.90717C0.241367 1.90717 0.156748 1.88767 0.0796467 1.85016C0.0278517 1.77804 0 1.69146 0 1.60267C0 1.51387 0.0278517 1.42735 0.0796467 1.35523C0.0796467 0.931005 0.362455 0.718865 0.928088 0.718865H1.63514C1.63514 0.294641 1.49373 0.0825543 1.21091 0.0825543C0.956758 0.00985961 0.687314 0.00985961 0.433162 0.0825543C0.705268 -0.0275181 1.0095 -0.0275181 1.2816 0.0825543C1.77653 0.0825543 2.05936 0.0825349 1.98866 1.00169L1.77653 1.92087ZM1.77653 0.6482H0.786676C0.786676 0.6482 0.786698 0.6482 1.14022 0.6482C1.21546 0.691639 1.3008 0.714496 1.38768 0.714496C1.47456 0.714496 1.55991 0.691639 1.63514 0.6482C1.67446 0.509524 1.67446 0.362615 1.63514 0.223939L1.77653 0.6482Z" fill="#D9D9D9"/>
</svg>
