<svg width="265" height="496" viewBox="0 0 265 496" fill="none" xmlns="http://www.w3.org/2000/svg">
<path d="M151.125 495.314C146.212 495.295 141.311 494.834 136.481 493.937C120.866 491.084 109.319 481.921 99.1662 472.444C85.4947 459.682 73.6774 443.094 61.959 420.242C50.9786 398.821 41.4743 374.476 32.033 343.623C20.0266 304.39 11.8633 267.498 7.08414 230.849C6.48112 226.223 5.83311 221.588 5.18509 216.952C3.11502 202.138 0.972944 186.819 0.342923 171.69C-0.557107 148.811 0.46893 126.103 1.63897 104.809C2.33009 91.9822 4.23467 79.2499 7.32716 66.7825C9.82925 56.7382 13.5463 43.7507 20.0626 32.3023C30.4579 14.0497 43.7603 3.55538 60.7349 0.225271C60.7844 0.276719 60.8439 0.317648 60.9096 0.345602C60.9753 0.373557 61.046 0.387956 61.1175 0.387956C61.1889 0.387956 61.2596 0.373557 61.3253 0.345602C61.391 0.317648 61.4504 0.276719 61.5 0.225271C78.9875 -0.940536 96.4796 2.43263 112.28 10.0176C144.924 25.5791 173.689 50.2759 202.796 87.7442C225.818 117.364 242.658 151.484 252.846 189.151C259.78 214.446 263.734 240.466 264.628 266.679C265.24 286.93 265.528 306.757 261.928 326.585C261.088 331.253 260.26 335.927 259.444 340.608C257.976 348.933 256.455 357.546 254.889 365.997C251.514 384.133 244.899 401.153 238.248 416.858C226.277 445.128 210.059 466.756 188.674 482.965C177.847 491.183 165.255 495.314 151.125 495.314ZM61.176 0.954292C61.1074 1.03786 61.0119 1.0951 60.9059 1.11629C44.2104 4.3924 31.1149 14.7428 20.8546 32.7524C14.3924 44.1107 10.7023 57.0532 8.20918 66.9985C5.13091 79.4129 3.2354 92.0909 2.54801 104.863C1.36897 126.13 0.306931 148.811 1.25196 171.645C1.87298 186.738 4.01505 202.039 6.08512 216.826C6.73314 221.462 7.38115 226.097 7.98417 230.732C12.7633 267.327 20.9086 304.165 32.897 343.353C42.3203 374.152 51.7976 398.452 62.769 419.855C74.4694 442.608 86.1698 459.115 99.7872 471.805C109.841 481.192 121.262 490.265 136.688 493.064C156.894 496.745 173.743 493.217 188.188 482.263C209.447 466.153 225.575 444.651 237.474 416.561C244.107 400.91 250.695 383.944 254.061 365.889C255.627 357.447 257.148 348.789 258.616 340.518C259.438 335.837 260.266 331.16 261.1 326.486C264.637 306.739 264.376 286.975 263.8 266.769C262.904 240.626 258.962 214.677 252.054 189.448C241.893 151.898 225.107 117.895 202.166 88.3652C173.095 50.9599 144.402 26.3442 111.893 10.8456C96.2297 3.31628 78.885 -0.0323596 61.545 1.1253C61.4748 1.12456 61.4057 1.10894 61.3421 1.07946C61.2785 1.04998 61.2219 1.0073 61.176 0.954292Z" fill="#83CD20"/>
</svg>
