<svg width="587" height="509" viewBox="0 0 587 509" fill="none" xmlns="http://www.w3.org/2000/svg">
<path d="M0.227739 159.2C1.46267 176.471 2.74269 194.355 5.77143 211.608C11.1799 242.256 16.8949 269.947 23.3129 296.205C28.8836 318.984 35.2025 341.988 41.3411 364.226C44.6132 376.133 47.9935 388.446 51.2566 400.588C52.5066 405.276 53.7625 409.966 55.0245 414.66C59.9822 433.093 65.1113 452.158 69.384 471.088C72.2054 483.554 74.549 496.327 76.7665 508.803H77.6679C75.4324 496.237 73.0797 483.419 70.2493 470.881C65.9676 451.951 60.8386 432.868 55.8809 414.416C54.6189 409.729 53.3629 405.042 52.1129 400.354C48.8769 388.212 45.4966 375.89 42.1974 363.982C36.0859 341.745 29.767 318.759 24.1692 295.989C17.7512 269.74 12.0183 242.094 6.64588 211.446C3.61715 194.22 2.34614 176.381 1.10219 159.164L0.966957 157.271C0.731174 151.744 0.933159 146.207 1.57094 140.712C1.80531 138.071 2.04864 135.304 2.19286 132.672C3.09427 115.932 6.91627 101.122 13.5957 88.5746C25.5574 66.1836 44.3428 48.0112 69.4831 34.4089C89.242 23.7362 111.669 15.7407 136.187 10.6478L136.8 10.5216C155.64 6.60043 175.128 2.54411 194.418 1.75988C217.323 0.813403 243.293 -0.250265 268.83 3.89622C298.396 8.70073 324.348 17.228 348.154 29.9649C386.103 50.2466 415.76 79.2541 439.809 104.953C454.565 120.728 468.753 137.539 482.491 153.792C489.035 161.535 495.796 169.548 502.538 177.345C506.889 182.375 511.222 187.426 515.537 192.498C526.795 205.686 538.442 219.333 550.448 232.232C562.455 245.131 574.786 257.769 587 270.146V268.847C575.039 256.678 562.843 244.203 551.115 231.61C539.118 218.72 527.48 205.091 516.222 191.903C511.907 186.849 507.574 181.798 503.223 176.751C496.49 168.953 489.702 160.949 483.185 153.197C469.448 136.971 455.241 120.124 440.467 104.322C416.391 78.5779 386.653 49.5075 348.587 29.1536C324.672 16.3716 298.63 7.81726 268.974 3.01275C243.338 -1.15177 217.323 -0.0789927 194.373 0.858473C175.011 1.66073 155.487 5.71707 136.602 9.64722L135.998 9.77332C111.435 14.8843 88.9265 22.9069 69.0864 33.6247C43.847 47.263 24.9174 65.6157 12.8745 88.16C6.12299 100.78 2.25592 115.77 1.36352 132.645C1.2193 135.349 0.984985 138.053 0.741604 140.64C0.254843 146.139 -0.258991 151.818 0.146643 157.361L0.227739 159.2Z" fill="#83CD20"/>
</svg>
