<svg width="767" height="181" viewBox="0 0 767 181" fill="none" xmlns="http://www.w3.org/2000/svg">
<path d="M766.982 179.889C760.517 179.699 754.006 179.429 747.577 178.943C738.239 178.232 728.793 176.809 719.662 175.44C715.241 174.774 710.657 174.089 706.155 173.495C702.346 172.991 698.465 172.532 694.71 172.081C687.632 171.253 680.302 170.388 673.198 169.173C665.309 167.822 657.331 166.201 649.614 164.67C643.311 163.392 636.791 162.059 630.353 160.897C622.816 159.52 615.126 158.25 607.688 157.025C598.773 155.549 589.561 154.027 580.538 152.325C573.578 151.01 566.536 149.416 559.737 147.877C553.902 146.553 547.869 145.175 541.908 143.995C534.119 142.447 526.176 141.006 518.495 139.601C508.905 137.854 498.991 136.044 489.284 134.027C477.244 131.524 465.052 128.759 453.265 126.094C444.368 124.077 435.165 121.997 426.097 120.043C416.318 117.927 406.35 115.883 396.715 113.892C380.092 110.471 362.902 106.932 346.117 102.979C332.393 99.746 318.535 96.018 305.145 92.4071C293.961 89.3995 282.39 86.2838 270.927 83.4743C228.983 73.1729 185.309 60.35 141.123 45.3661C128.741 41.1609 116.189 36.8025 104.05 32.5793C84.699 25.8527 64.6904 18.892 44.8889 12.4356C29.977 7.58202 16.5958 3.43082 3.60191 0H0C14.0475 3.60191 28.4372 8.03226 44.6277 13.3091C64.4383 19.7565 84.4288 26.7082 103.78 33.4348C115.919 37.658 128.471 42.0253 140.853 46.2305C185.075 61.2145 228.766 74.0463 270.738 84.3568C282.165 87.1663 293.727 90.2819 304.902 93.2895C318.31 96.8915 332.168 100.628 345.91 103.87C362.713 107.823 379.903 111.362 396.535 114.784C406.17 116.774 416.129 118.827 425.908 120.934C434.967 122.888 444.17 124.968 453.067 126.985C464.863 129.687 477.064 132.388 489.086 134.919C498.793 136.936 508.716 138.746 518.315 140.502C525.996 141.897 533.93 143.347 541.728 144.896C547.689 146.076 553.713 147.444 559.539 148.759C566.347 150.308 573.388 151.902 580.367 153.216C589.372 154.927 598.62 156.449 607.544 157.926C614.973 159.151 622.663 160.42 630.191 161.789C636.62 162.96 643.14 164.283 649.434 165.562C657.16 167.129 665.147 168.759 673.044 170.064C680.194 171.28 687.515 172.144 694.602 172.982C698.357 173.423 702.238 173.882 706.038 174.387C710.54 174.981 715.097 175.674 719.545 176.332C728.694 177.709 738.158 179.132 747.523 179.843C753.979 180.33 760.508 180.6 767 180.789L766.982 179.889Z" fill="#83CD20"/>
</svg>
