<svg width="968" height="1277" viewBox="0 0 968 1277" fill="none" xmlns="http://www.w3.org/2000/svg">
<path d="M965.556 0C952.439 6.70744 943.219 18.9789 937.646 37.1655C930.696 59.6107 929.21 82.6051 928.283 104.24C927.743 116.908 928.283 129.836 928.796 142.333C929.039 148.077 929.282 154.037 929.426 159.871C929.57 166.02 929.75 172.161 929.93 178.31C930.354 192.796 930.831 207.787 930.741 222.516C930.552 272.934 930.075 322.209 929.327 368.936C929.057 385.664 928.157 402.672 927.274 419.121C927.04 423.508 926.812 427.896 926.59 432.283C925.816 447.589 924.79 462.895 923.79 477.3C923.331 483.944 922.791 490.697 922.269 497.233C921.837 502.554 921.368 507.875 921.026 513.205C920.468 520.75 919.955 528.303 919.442 535.857C919.034 541.919 918.616 547.979 918.19 554.035L918.136 554.8C917.758 560.085 917.371 565.604 916.777 570.907C915.978 578.109 915.153 585.276 914.301 592.407C913.265 601.284 912.194 610.413 911.213 619.498C910.727 624.044 910.312 628.681 909.97 633.165C909.502 638.846 909.07 644.716 908.314 650.451C906.936 661.651 905.352 673.013 903.812 683.997C902.984 689.951 902.164 695.899 901.354 701.842C900.472 708.384 899.607 714.929 898.761 721.478C897.339 732.354 895.862 743.599 894.26 754.637C891.505 774.075 888.587 793.189 885.85 810.952C885.121 815.688 884.437 820.433 883.744 825.177C881.943 837.863 880.007 850.981 877.279 863.684C873.129 882.961 868.276 902.399 863.486 921.224C862.046 926.921 860.614 932.623 859.192 938.331C850.287 974.128 837.071 1007.24 819.928 1036.76C801.774 1068.21 777.704 1095.84 749.046 1118.14C712.816 1146.26 669.961 1168.37 618.03 1185.73C586.275 1196.34 559.959 1204.64 535.2 1211.71C513.277 1218.01 490.76 1223.58 468.981 1228.98L455.935 1232.22C438.063 1236.73 419.823 1240.89 402.176 1244.96L396.288 1246.32C382.09 1249.61 367.613 1252.78 353.622 1255.86L352.073 1256.19C347.337 1257.24 342.605 1258.29 337.875 1259.36C325.531 1262.14 312.765 1265.01 300.133 1267.36C295.992 1268.13 291.787 1268.97 287.718 1269.79C270.161 1273.3 252.011 1276.93 233.572 1275.95C226.639 1275.58 222.723 1271.63 222.849 1265.1C223.047 1254.25 223.326 1242.7 224.263 1231.35C225.046 1221.98 226.063 1212.44 226.964 1203.26C227.864 1194.08 228.917 1184.44 229.665 1175.02C230.655 1163.04 231.303 1150.84 231.933 1139C232.131 1135.27 232.333 1131.53 232.537 1127.8C233.077 1118.15 233.626 1108.18 233.923 1098.22C234.04 1094.16 234.175 1090.12 234.301 1086.04C234.778 1070.88 235.283 1055.19 235.256 1039.77C235.256 1020.13 234.706 1000.16 234.211 980.853L233.914 969.365C233.77 963.612 233.401 957.769 233.014 952.115C232.843 949.414 232.672 946.713 232.528 944.012L231.996 934.459C231.234 920.51 230.475 906.564 229.719 892.621C229.53 889.146 229.367 885.671 229.196 882.195C228.917 876.613 228.638 870.842 228.296 865.161C227.927 859.21 227.477 854.276 226.883 849.648C225.811 841.275 224.65 832.785 223.533 824.565C222.783 819.085 222.042 813.596 221.31 808.098C220.688 803.444 220.112 798.699 219.563 794.107C218.42 784.591 217.231 774.75 215.556 765.162C212.09 745.291 208.426 727.096 204.347 709.521L203.447 705.686C197.442 679.829 191.248 653.107 183.856 627.177C176.86 602.625 168.307 578.127 160.105 555.313C141.676 503.877 118.645 454.954 100.639 418.04C91.2392 398.764 78.9227 373.339 66.9844 347.635C65.1837 343.811 63.4011 339.982 61.6364 336.146C52.0479 315.583 42.1263 294.326 33.4742 272.97C24.3095 250.663 16.3512 227.879 9.6335 204.717C6.03219 192.112 2.85404 178.886 0 164.661V169.163C2.62896 181.767 5.519 193.588 8.76018 204.933C15.4802 228.115 23.4385 250.92 32.6009 273.249C41.262 294.623 51.1926 315.898 60.7901 336.471L66.1381 347.959C78.0764 373.672 90.4469 399.097 99.8013 418.373C117.808 455.287 140.811 504.193 159.313 555.655C167.506 578.461 176.059 602.941 183.046 627.465C190.428 653.368 196.623 680.09 202.619 705.929L203.519 709.764C207.598 727.321 211.262 745.498 214.728 765.351C216.394 774.921 217.582 784.744 218.726 794.251C219.275 798.843 219.851 803.597 220.472 808.26C221.198 813.752 221.94 819.241 222.696 824.727C223.812 832.938 224.974 841.437 226.045 849.792C226.639 854.411 227.081 859.318 227.45 865.251C227.801 870.923 228.08 876.694 228.35 882.285C228.524 885.749 228.698 889.221 228.872 892.702C229.629 906.651 230.391 920.6 231.159 934.549L231.681 944.093C231.825 946.794 231.996 949.495 232.168 952.196C232.528 957.832 232.897 963.666 233.068 969.41L233.365 980.889C233.86 1000.19 234.382 1020.16 234.409 1039.79C234.409 1055.2 233.941 1070.87 233.455 1086.03C233.329 1090.09 233.194 1094.13 233.077 1098.21C232.789 1108.11 232.231 1118.13 231.69 1127.77C231.486 1131.5 231.285 1135.23 231.087 1138.98C230.457 1150.76 229.818 1162.95 228.827 1174.92C228.044 1184.34 227.027 1193.9 226.126 1203.14C225.226 1212.39 224.182 1221.86 223.425 1231.24C222.525 1242.61 222.201 1254.18 222.003 1265.06C221.877 1272.05 226.207 1276.45 233.59 1276.84C235.667 1276.94 237.738 1277 239.802 1277C256.197 1277 272.313 1273.77 287.961 1270.7C292.021 1269.89 296.226 1269.05 300.358 1268.27C313.017 1265.92 325.784 1263.05 338.172 1260.27C342.899 1259.21 347.635 1258.14 352.37 1257.1L353.91 1256.76C367.91 1253.69 382.387 1250.51 396.585 1247.23L402.483 1245.87C420.129 1241.8 438.379 1237.58 456.25 1233.12L469.296 1229.88C491.084 1224.48 513.61 1218.9 535.542 1212.6C560.31 1205.49 586.636 1197.23 618.372 1186.61C670.411 1169.22 713.357 1147.06 749.667 1118.88C778.426 1096.51 802.579 1068.79 820.793 1037.23C837.98 1007.64 851.224 974.443 860.155 938.565C861.569 932.866 863.009 927.167 864.441 921.459C869.194 902.642 874.101 883.177 878.243 863.892C880.944 851.152 882.888 838.016 884.725 825.313C885.418 820.568 886.103 815.832 886.832 811.096C889.533 793.333 892.486 774.183 895.241 754.772C896.807 743.725 898.284 732.48 899.743 721.604C900.601 715.055 901.465 708.513 902.335 701.977C903.134 696.022 903.953 690.074 904.793 684.132C906.324 673.139 907.908 661.777 909.295 650.568C910.006 644.815 910.492 638.936 910.961 633.255C911.33 628.753 911.708 624.143 912.194 619.597C913.175 610.593 914.247 601.392 915.282 592.524C916.116 585.357 916.942 578.191 917.758 571.024C918.352 565.622 918.748 560.175 919.127 554.872L919.181 554.107C919.613 548.048 920.018 541.988 920.432 535.929C920.942 528.372 921.467 520.822 922.008 513.277C922.395 507.956 922.827 502.635 923.25 497.314C923.781 490.778 924.321 484.025 924.781 477.372C925.771 462.967 926.797 447.598 927.581 432.355C927.797 427.974 928.025 423.586 928.265 419.193C929.165 402.744 930.065 385.727 930.318 368.981C931.065 322.245 931.542 272.979 931.731 222.543C931.785 207.796 931.344 192.832 930.921 178.31C930.741 172.161 930.561 166.02 930.417 159.88C930.273 154.028 930.03 148.077 929.786 142.315C929.264 129.845 928.733 116.935 929.273 104.303C930.173 82.6951 931.677 59.8088 938.592 37.4626C944.381 18.7538 954.014 6.41935 967.834 0.0270225L965.556 0Z" fill="#83CD20"/>
</svg>
