<svg width="9" height="12" viewBox="0 0 9 12" fill="none" xmlns="http://www.w3.org/2000/svg">
<path d="M8.84629 1.75792C8.96284 2.29486 8.96284 2.85055 8.84629 3.38749C8.73097 3.8686 8.48997 4.31046 8.1479 4.66788C7.82894 5.0712 7.43335 5.40746 6.98391 5.65728C6.52682 5.90136 6.03671 6.0778 5.52893 6.18108L4.30675 6.47207L5.06333 9.84762C5.03198 10.0012 5.03198 10.1596 5.06333 10.3132C5.06333 10.3132 5.06333 10.3132 5.47073 10.3132H5.99452H6.69292V10.8952L1.92058 12.001V11.419H2.44436C2.5978 11.452 2.75653 11.452 2.90997 11.419L3.20096 11.0698C3.2292 10.8964 3.2292 10.7195 3.20096 10.546L1.57137 2.39811C1.60273 2.2445 1.60273 2.08612 1.57137 1.93251C1.57137 1.93251 1.57137 1.93251 1.16398 1.93251H0V1.40873L5.06333 0.244743C5.92589 -0.0815811 6.87795 -0.0815811 7.74051 0.244743C8.28707 0.591288 8.68214 1.13191 8.84629 1.75792ZM6.86751 4.2023C6.97498 3.92122 6.97498 3.61037 6.86751 3.3293C6.89856 3.07806 6.89856 2.82394 6.86751 2.5727C6.89236 2.28224 6.89236 1.99019 6.86751 1.69973C6.72129 1.43094 6.52353 1.19361 6.28553 1.00132C6.06011 0.788047 5.77659 0.646292 5.47073 0.593925C5.08743 0.508557 4.69005 0.508557 4.30675 0.593925H3.20096L4.30675 5.48267H5.12153C5.59711 5.42171 6.04328 5.21891 6.40192 4.90068C6.61345 4.71081 6.7736 4.47059 6.86751 4.2023Z" fill="#D9D9D9"/>
</svg>
