<svg width="3" height="6" viewBox="0 0 3 6" fill="none" xmlns="http://www.w3.org/2000/svg">
<path d="M2.0935 2.5971C2.04216 2.71866 1.96434 2.82719 1.86571 2.91485C1.76709 3.00252 1.65015 3.06708 1.52341 3.10381C1.29953 3.19205 1.05051 3.19205 0.826627 3.10381C0.55981 2.84992 0.38207 2.51667 0.319868 2.15365C0.192914 1.69781 0.192914 1.21598 0.319868 0.760138C0.390301 0.556645 0.516926 0.37722 0.685077 0.242699C0.853228 0.108179 1.05604 0.0240454 1.27003 0H1.6501H2.03014C2.09451 0.249286 2.09451 0.510852 2.03014 0.760138C1.99654 1.1183 1.99654 1.47881 2.03014 1.83696L2.79026 0.506759L1.90345 2.21701C1.93885 2.702 1.93885 3.18894 1.90345 3.67393C2.03508 4.21502 2.03508 4.77974 1.90345 5.32082C1.83132 5.49991 1.70956 5.65467 1.55245 5.76688C1.39535 5.8791 1.20945 5.94414 1.01665 5.9543C0.831799 6.01704 0.631409 6.01704 0.446558 5.9543C0.446558 5.9543 0.129857 5.95427 0.0665132 5.38418C-0.0221711 5.05217 -0.0221711 4.70272 0.0665132 4.37071C0.368908 3.78035 0.70738 3.20915 1.08001 2.66041V1.64694L2.0935 2.5971ZM1.46005 0.0633569C1.25138 0.167409 1.09208 0.349426 1.01665 0.570067C0.923305 0.879907 0.923305 1.21039 1.01665 1.52023C0.97058 1.79278 0.97058 2.07117 1.01665 2.34372C1.08126 2.39013 1.1588 2.41505 1.23835 2.41505C1.3179 2.41505 1.39544 2.39013 1.46005 2.34372C1.46005 2.34372 1.46006 2.34373 1.84012 1.90032C2.22018 1.45692 1.84012 1.2035 1.84012 0.570067C1.851 0.443614 1.851 0.316476 1.84012 0.190022C1.73625 0.163204 1.62728 0.163204 1.52341 0.190022L1.46005 0.0633569ZM2.60024 2.91379C2.03014 3.8006 1.77677 4.43402 1.90345 4.87742C1.86985 4.9465 1.8524 5.02233 1.8524 5.09915C1.8524 5.17596 1.86985 5.25175 1.90345 5.32082C1.90345 5.32082 1.90345 5.32082 2.22017 5.32082C2.31761 5.28805 2.40439 5.22954 2.4713 5.15148C2.5382 5.07343 2.58275 4.97873 2.60024 4.87742C2.62224 4.45542 2.62224 4.03258 2.60024 3.61057V2.91379Z" fill="#D9D9D9"/>
</svg>
