<svg width="2" height="3" viewBox="0 0 2 3" fill="none" xmlns="http://www.w3.org/2000/svg">
<path d="M1.5931 2.48562C1.54168 2.60045 1.4636 2.70134 1.36535 2.77994C1.2671 2.85854 1.1515 2.91259 1.02818 2.93755C0.929971 2.97951 0.824278 3.00113 0.71748 3.00113C0.610682 3.00113 0.504989 2.97951 0.406778 2.93755C0.230153 2.77207 0.111352 2.55424 0.0678462 2.31615C-0.0226154 2.06029 -0.0226154 1.78114 0.0678462 1.52528C0.122443 1.41816 0.202494 1.32606 0.300991 1.25712C0.399488 1.18817 0.51341 1.14448 0.632747 1.12984C0.727212 1.07531 0.834371 1.04658 0.943449 1.04658C1.05253 1.04658 1.15969 1.07531 1.25415 1.12984V0H1.5366L1.5931 2.48562ZM1.14117 1.69475C1.16758 1.63217 1.18118 1.56492 1.18118 1.49701C1.18118 1.42909 1.16758 1.36188 1.14117 1.29931C0.995863 1.24259 0.834554 1.24259 0.68925 1.29931C0.68925 1.29931 0.406788 1.29931 0.350297 1.29931C0.305663 1.38677 0.282394 1.48355 0.282394 1.58174C0.282394 1.67993 0.305663 1.77675 0.350297 1.86421C0.289762 2.02828 0.289762 2.20854 0.350297 2.37261C0.4956 2.42933 0.656931 2.42933 0.802235 2.37261C0.855199 2.39773 0.91308 2.4108 0.971701 2.4108C1.03032 2.4108 1.0882 2.39773 1.14117 2.37261C1.22454 2.2794 1.27064 2.15874 1.27064 2.03368C1.27064 1.90862 1.22454 1.78796 1.14117 1.69475Z" fill="#D9D9D9"/>
</svg>
