<svg width="2" height="3" viewBox="0 0 2 3" fill="none" xmlns="http://www.w3.org/2000/svg">
<path d="M1.76489 1.51503C1.77663 1.65981 1.75472 1.80535 1.70084 1.94025C1.64696 2.07515 1.5626 2.19576 1.45434 2.29262C1.34609 2.38948 1.21687 2.45994 1.07683 2.49855C0.936794 2.53715 0.789716 2.54282 0.647122 2.51511H0C0.193236 2.56248 0.395045 2.56248 0.588281 2.51511C1.05891 2.51511 1.35305 2.51514 1.41188 1.80919C1.30287 1.8659 1.18181 1.8955 1.05892 1.8955C0.936039 1.8955 0.814978 1.8659 0.705964 1.80919C0.6227 1.84652 0.532493 1.86579 0.441244 1.86579C0.349995 1.86579 0.259744 1.84652 0.17648 1.80919C0.0865554 1.56219 0.0865554 1.29138 0.17648 1.04438C0.220244 0.761447 0.34257 0.496489 0.529484 0.279622C0.63176 0.23593 0.741828 0.21342 0.853045 0.21342C0.964263 0.21342 1.07433 0.23593 1.17661 0.279622C1.17661 0.279622 1.64722 0.279621 1.70605 0.691424H2.00021L1.76489 1.51503ZM1.76489 0.750265V0.456102C1.7842 0.319514 1.7842 0.180889 1.76489 0.0443011C1.69973 0.0167956 1.62969 0.00264974 1.55896 0.00264974C1.48824 0.00264974 1.41825 0.0167956 1.35309 0.0443011C1.20177 -0.014767 1.03376 -0.014767 0.882444 0.0443011C0.813755 0.214105 0.813755 0.403982 0.882444 0.573785C0.81959 0.764845 0.81959 0.971006 0.882444 1.16207H1.29424C1.35941 1.18957 1.42939 1.20372 1.50012 1.20372C1.57085 1.20372 1.64088 1.18957 1.70605 1.16207C1.71317 1.08417 1.70077 1.00569 1.66996 0.933792C1.63915 0.861891 1.59089 0.798831 1.52957 0.750265H1.76489Z" fill="#D9D9D9"/>
</svg>
