<svg width="10" height="12" viewBox="0 0 10 12" fill="none" xmlns="http://www.w3.org/2000/svg">
<path d="M9.60643 4.21334H9.04463C9.06867 3.97049 9.06867 3.72589 9.04463 3.48304C8.96721 3.21537 8.87341 2.95271 8.76375 2.69655C8.70992 2.43015 8.59448 2.18004 8.42667 1.96624C8.31987 1.7929 8.16324 1.65584 7.97726 1.57299H7.41547H6.74134H6.29193L4.38188 10.1682C4.32624 10.3321 4.32624 10.5099 4.38188 10.6738C4.39649 10.7561 4.42928 10.8341 4.47787 10.9022C4.52646 10.9702 4.58964 11.0265 4.66277 11.067L5.22454 11.3479C5.42876 11.386 5.63827 11.386 5.8425 11.3479V11.9097L0.786486 10.73V10.2244H2.07859C2.07859 10.2244 2.41566 10.2244 2.47184 10.2244C2.50989 10.077 2.50989 9.92234 2.47184 9.77495L4.38188 1.12356H3.98864H3.37068H2.69653H2.13476L1.46064 1.62916L0.898844 2.24712L0.505601 2.86508H0L0.674149 0L9.99967 2.0786L9.60643 4.21334Z" fill="#D9D9D9"/>
</svg>
