<svg width="3" height="3" viewBox="0 0 3 3" fill="none" xmlns="http://www.w3.org/2000/svg">
<path d="M0 2.99782L0.318597 0.00294831H1.14697C1.3516 -0.0106605 1.55662 0.0229694 1.7462 0.101199C1.93577 0.179428 2.10483 0.300184 2.24032 0.454143C2.3758 0.608101 2.47409 0.791117 2.52758 0.989101C2.58107 1.18708 2.58834 1.39472 2.54883 1.59596C2.50033 1.99837 2.29406 2.36509 1.97534 2.61551C1.78417 2.69791 1.57817 2.7404 1.36999 2.7404C1.16181 2.7404 0.955815 2.69791 0.764639 2.61551L0 2.99782ZM0.637219 0.385256V2.6792H1.08326C1.23424 2.74406 1.39682 2.77754 1.56114 2.77754C1.72547 2.77754 1.88807 2.74406 2.03905 2.6792C2.25269 2.42667 2.38585 2.11597 2.42138 1.78711C2.42138 1.02247 2.42137 0.640178 1.33812 0.576458L0.637219 0.385256Z" fill="#D9D9D9"/>
</svg>
