<svg width="2" height="3" viewBox="0 0 2 3" fill="none" xmlns="http://www.w3.org/2000/svg">
<path d="M1.49873 3.00235V1.71775C1.49873 1.19439 1.28462 0.980313 0.856423 1.07547C0.789511 1.04373 0.716361 1.02723 0.642303 1.02723C0.568246 1.02723 0.495123 1.04373 0.428211 1.07547C0.356554 1.25904 0.356554 1.4628 0.428211 1.64636V3.00235L0 0.647231C0.0649642 0.502157 0.163611 0.3747 0.287734 0.275401C0.411857 0.176103 0.55789 0.107871 0.713685 0.076337C0.813299 0.0261415 0.923278 0 1.03482 0C1.14637 0 1.25638 0.0261415 1.35599 0.076337C1.43246 0.283609 1.43246 0.511342 1.35599 0.718613L1.49873 3.00235Z" fill="#D9D9D9"/>
</svg>
