<svg width="3" height="3" viewBox="0 0 3 3" fill="none" xmlns="http://www.w3.org/2000/svg">
<path d="M2.11061 0H1.68526H1.25988H0.763627H0.338251C0.317891 0.141058 0.317891 0.284345 0.338251 0.425402C0.306521 0.613122 0.306521 0.80485 0.338251 0.99257V1.63059C0.307511 1.77071 0.307511 1.91582 0.338251 2.05594C0.418124 2.20702 0.54164 2.33056 0.692717 2.41043H1.18898H1.68526V1.13433H0.976301H2.18152V2.9776H1.11809H0.480043C0.339702 3.00625 0.195009 3.00625 0.0546677 2.9776C0.0160695 2.76667 0.0160695 2.55046 0.0546677 2.33952C-0.0182226 2.08469 -0.0182226 1.81452 0.0546677 1.55968C-0.0182226 1.30485 -0.0182226 1.03468 0.0546677 0.779841C0.132219 0.550199 0.2813 0.351477 0.480043 0.212728C0.667165 0.174532 0.860088 0.174532 1.04721 0.212728H2.18152H2.60687L2.11061 0Z" fill="#D9D9D9"/>
</svg>
