<svg width="745" height="1166" viewBox="0 0 745 1166" fill="none" xmlns="http://www.w3.org/2000/svg">
<path d="M744.991 1164.4C737.057 1153.04 729.483 1141.56 722.477 1129.78C710.572 1109.72 698.792 1089.14 687.355 1069.23C682.655 1061.02 677.948 1052.82 673.235 1044.62C669.909 1038.85 666.607 1033.08 663.329 1027.3C657.862 1017.72 652.207 1007.83 646.551 998.163C635.745 979.629 622.39 958.115 605.648 939.069C590.267 921.571 574.669 908.801 557.973 900.03C531.263 885.999 501.067 878.939 462.947 877.804C440.622 877.138 417.919 877.75 395.892 878.345C387.724 878.57 379.277 878.795 370.965 878.957C364.445 879.083 357.817 879.407 351.405 879.713C347.001 879.929 342.399 880.155 337.959 880.308L327.477 880.695C315.77 881.136 303.585 881.596 291.635 881.596C285.538 881.596 279.289 881.298 273.264 880.992C267.401 880.686 261.341 880.38 255.37 880.38H254.794C237.593 880.38 218.961 878.579 196.195 874.841C175.482 871.401 157.165 865.773 140.261 857.632C106.941 841.62 80.3388 815.207 61.085 779.113C42.7137 744.676 30.3041 710.869 23.1538 675.747C21.6318 668.291 19.9478 660.744 18.3178 653.441C15.6161 641.391 12.8424 628.937 10.7351 616.572C7.64623 598.408 5.69203 580.019 3.63877 559.594C2.30596 546.383 0.892148 531.029 0.883142 515.99C0.883142 479.752 1.32435 446.359 2.27893 413.903C2.75622 397.765 4.15214 381.375 5.49396 365.526C5.80015 361.923 6.10033 358.339 6.39451 354.773C7.50219 341.355 8.63689 327.486 10.6811 313.978C12.4822 302.064 14.7066 290.014 16.8589 278.352C18.0296 272.048 19.2364 265.492 20.3621 259.044C25.2959 231.343 32.3253 204.056 41.3899 177.418C49.5849 152.995 58.7075 131.796 69.307 112.624C82.8783 88.0116 96.7198 69.7124 112.858 54.9884C135.119 34.735 161.271 20.5243 192.791 11.5458C216.51 4.8001 241.022 1.24169 265.681 0.964334C287.907 0.712179 311.771 1.02737 335.816 5.12488C341.661 6.11548 347.649 6.86293 353.449 7.59238C363.148 8.80812 373.18 10.0689 382.735 12.4914C409.229 19.2185 434.733 26.7832 458.516 35.0052C483.472 43.6746 507.424 55.0026 529.957 68.7938C562.242 88.4619 584.593 106.779 602.442 128.23C617.455 146.241 629.36 163.739 638.825 181.741C655.567 213.783 667.351 248.179 673.775 283.755C678.08 307.17 682.582 332.241 686.329 356.979C688.211 369.38 689.481 382.096 690.705 394.397C691.147 398.81 691.606 403.232 692.056 407.644C692.795 414.597 693.497 421.666 694.172 428.51C695.28 439.677 696.415 451.231 697.775 462.56C698.999 472.862 700.476 483.273 701.881 493.395C702.836 500.14 703.818 507.119 704.709 513.981C707.909 538.001 713.543 561.633 721.522 584.513C727.358 601.506 735.148 616.167 745 628.739V627.28C735.544 614.987 728.042 600.704 722.378 584.215C714.421 561.394 708.806 537.822 705.619 513.864C704.718 506.993 703.736 500.014 702.782 493.269C701.368 483.174 699.9 472.745 698.675 462.452C697.333 451.132 696.199 439.578 695.073 428.42C694.398 421.576 693.704 414.498 692.966 407.545C692.498 403.133 692.065 398.72 691.615 394.307C690.381 381.997 689.111 369.272 687.229 356.844C683.456 332.088 678.953 307.008 674.676 283.593C668.235 247.927 656.424 213.443 639.644 181.318C630.143 163.307 618.202 145.71 603.145 127.654C585.233 106.167 562.809 87.7955 530.434 68.0644C507.846 54.2203 483.835 42.8469 458.813 34.1406C435.012 25.9456 409.49 18.381 382.969 11.6269C373.351 9.19537 363.301 7.9256 353.566 6.70986C347.785 5.98041 341.796 5.23293 335.978 4.24233C311.862 0.135812 287.934 -0.188372 265.681 0.0637822C240.943 0.346676 216.352 3.9202 192.556 10.6903C160.893 19.6958 134.624 33.9785 112.254 54.331C96.0443 69.091 82.1399 87.4623 68.5235 112.164C57.915 131.391 48.7654 152.635 40.5524 177.112C31.4775 203.795 24.439 231.127 19.4975 258.873C18.3718 265.312 17.165 271.841 15.9943 278.163C13.833 289.87 11.6086 301.902 9.80753 313.825C7.76327 327.333 6.61957 341.256 5.52089 354.683C5.22071 358.285 4.92053 361.866 4.62034 365.426C3.26952 381.294 1.91873 397.693 1.39641 413.858C0.441824 446.278 -0.0175014 479.724 0.000509579 515.972C0.000509579 531.056 1.43244 546.437 2.75625 559.666C4.81851 580.109 6.77273 598.516 9.87063 616.707C11.9779 629.09 14.7606 641.563 17.4532 653.63C19.0832 660.933 20.7762 668.48 22.2892 675.928C29.4936 711.13 41.8942 745.018 60.3105 779.491C79.6544 815.756 106.437 842.304 139.892 858.406C156.642 866.457 175.545 872.275 196.078 875.688C218.889 879.47 237.566 881.235 254.821 881.235H255.388C261.332 881.235 267.383 881.541 273.228 881.848C279.271 882.154 285.547 882.514 291.662 882.451C303.621 882.451 315.77 881.956 327.531 881.55L338.014 881.163C342.516 881.01 347.019 880.785 351.468 880.578C357.871 880.263 364.49 879.939 371.001 879.812C379.313 879.659 387.76 879.425 395.937 879.209C417.91 878.606 440.64 877.993 462.938 878.66C500.914 879.785 530.984 886.819 557.568 900.777C574.165 909.504 589.682 922.201 604.982 939.618C621.678 958.602 634.979 980.071 645.786 998.568C651.432 1008.24 657.088 1018.13 662.554 1027.69C665.862 1033.47 669.164 1039.25 672.46 1045.02C677.179 1053.21 681.886 1061.42 686.581 1069.63C697.982 1089.54 709.77 1110.16 721.702 1130.19C728.907 1142.36 736.769 1154.21 744.982 1165.94L744.991 1164.4Z" fill="#83CD20"/>
</svg>
